<svg width="100%" viewBox="0 0 680 430" xmlns="http://www.w3.org/2000/svg"><title>L'échelle des nuances, de pp à ff</title>
<text x="340.0" y="20.0" font-size="17" fill="#1a1a18" font-weight="700" text-anchor="middle" dominant-baseline="central">Les nuances : du plus doux au plus fort</text>
<rect x="40.0" y="166.0" width="68.0" height="20.0" rx="6" fill="#E6F1FB" stroke="#185FA5" stroke-width="1.6"/>
<text class="tx" x="74.0" y="212.0" fill="#185FA5" font-weight="700" font-style="italic" text-anchor="middle" dominant-baseline="central">pp</text>
<text class="t" x="74.0" y="240.0" fill="#185FA5" font-weight="700" text-anchor="middle" dominant-baseline="central">très doux</text>
<text class="t" x="74.0" y="262.0" text-anchor="middle" dominant-baseline="central">un secret</text>
<text class="t" x="74.0" y="280.0" text-anchor="middle" dominant-baseline="central">à l'oreille</text>
<rect x="173.0" y="140.0" width="68.0" height="46.0" rx="6" fill="#E6F1FB" stroke="#185FA5" stroke-width="1.6"/>
<text class="tx" x="207.0" y="212.0" fill="#185FA5" font-weight="700" font-style="italic" text-anchor="middle" dominant-baseline="central">p</text>
<text class="t" x="207.0" y="240.0" fill="#185FA5" font-weight="700" text-anchor="middle" dominant-baseline="central">doux</text>
<text class="t" x="207.0" y="262.0" text-anchor="middle" dominant-baseline="central">une berceuse</text>
<text class="t" x="207.0" y="280.0" text-anchor="middle" dominant-baseline="central">pour un bébé</text>
<rect x="306.0" y="114.0" width="68.0" height="72.0" rx="6" fill="#EEEDFE" stroke="#534AB7" stroke-width="1.6"/>
<text class="tx" x="340.0" y="212.0" fill="#534AB7" font-weight="700" font-style="italic" text-anchor="middle" dominant-baseline="central">mf</text>
<text class="t" x="340.0" y="240.0" fill="#534AB7" font-weight="700" text-anchor="middle" dominant-baseline="central">assez fort</text>
<text class="t" x="340.0" y="262.0" text-anchor="middle" dominant-baseline="central">on se parle</text>
<text class="t" x="340.0" y="280.0" text-anchor="middle" dominant-baseline="central">à table</text>
<rect x="439.0" y="88.0" width="68.0" height="98.0" rx="6" fill="#FAECE7" stroke="#C2410C" stroke-width="1.6"/>
<text class="tx" x="473.0" y="212.0" fill="#C2410C" font-weight="700" font-style="italic" text-anchor="middle" dominant-baseline="central">f</text>
<text class="t" x="473.0" y="240.0" fill="#C2410C" font-weight="700" text-anchor="middle" dominant-baseline="central">fort</text>
<text class="t" x="473.0" y="262.0" text-anchor="middle" dominant-baseline="central">on appelle</text>
<text class="t" x="473.0" y="280.0" text-anchor="middle" dominant-baseline="central">dans la cour</text>
<rect x="572.0" y="62.0" width="68.0" height="124.0" rx="6" fill="#FAECE7" stroke="#C2410C" stroke-width="1.6"/>
<text class="tx" x="606.0" y="212.0" fill="#C2410C" font-weight="700" font-style="italic" text-anchor="middle" dominant-baseline="central">ff</text>
<text class="t" x="606.0" y="240.0" fill="#C2410C" font-weight="700" text-anchor="middle" dominant-baseline="central">très fort</text>
<text class="t" x="606.0" y="262.0" text-anchor="middle" dominant-baseline="central">un stade entier</text>
<text class="t" x="606.0" y="280.0" text-anchor="middle" dominant-baseline="central">qui encourage</text>
<path d="M64.0 160.0 Q74.0 153.0 84.0 160.0" fill="none" stroke="#185FA5" stroke-width="1.5" stroke-linecap="round" stroke-linejoin="round"/>
<path d="M197.0 134.0 Q207.0 127.0 217.0 134.0" fill="none" stroke="#185FA5" stroke-width="1.5" stroke-linecap="round" stroke-linejoin="round"/>
<path d="M190.0 134.0 Q207.0 122.1 224.0 134.0" fill="none" stroke="#185FA5" stroke-width="1.5" stroke-linecap="round" stroke-linejoin="round"/>
<path d="M330.0 108.0 Q340.0 101.0 350.0 108.0" fill="none" stroke="#534AB7" stroke-width="1.5" stroke-linecap="round" stroke-linejoin="round"/>
<path d="M323.0 108.0 Q340.0 96.1 357.0 108.0" fill="none" stroke="#534AB7" stroke-width="1.5" stroke-linecap="round" stroke-linejoin="round"/>
<path d="M316.0 108.0 Q340.0 91.2 364.0 108.0" fill="none" stroke="#534AB7" stroke-width="1.5" stroke-linecap="round" stroke-linejoin="round"/>
<path d="M463.0 82.0 Q473.0 75.0 483.0 82.0" fill="none" stroke="#C2410C" stroke-width="1.5" stroke-linecap="round" stroke-linejoin="round"/>
<path d="M456.0 82.0 Q473.0 70.1 490.0 82.0" fill="none" stroke="#C2410C" stroke-width="1.5" stroke-linecap="round" stroke-linejoin="round"/>
<path d="M449.0 82.0 Q473.0 65.2 497.0 82.0" fill="none" stroke="#C2410C" stroke-width="1.5" stroke-linecap="round" stroke-linejoin="round"/>
<path d="M442.0 82.0 Q473.0 60.3 504.0 82.0" fill="none" stroke="#C2410C" stroke-width="1.5" stroke-linecap="round" stroke-linejoin="round"/>
<path d="M596.0 56.0 Q606.0 49.0 616.0 56.0" fill="none" stroke="#C2410C" stroke-width="1.5" stroke-linecap="round" stroke-linejoin="round"/>
<path d="M589.0 56.0 Q606.0 44.1 623.0 56.0" fill="none" stroke="#C2410C" stroke-width="1.5" stroke-linecap="round" stroke-linejoin="round"/>
<path d="M582.0 56.0 Q606.0 39.2 630.0 56.0" fill="none" stroke="#C2410C" stroke-width="1.5" stroke-linecap="round" stroke-linejoin="round"/>
<path d="M575.0 56.0 Q606.0 34.3 637.0 56.0" fill="none" stroke="#C2410C" stroke-width="1.5" stroke-linecap="round" stroke-linejoin="round"/>
<path d="M568.0 56.0 Q606.0 29.4 644.0 56.0" fill="none" stroke="#C2410C" stroke-width="1.5" stroke-linecap="round" stroke-linejoin="round"/>
<line x1="40.0" y1="298.0" x2="640.0" y2="298.0" stroke="#cfd8e3" stroke-width="1" stroke-linecap="butt"/>
<text x="340.0" y="318.0" font-size="17" fill="#1a1a18" font-weight="700" text-anchor="middle" dominant-baseline="central">Changer de nuance petit à petit</text>
<line x1="50.0" y1="364.0" x2="236.0" y2="346.0" stroke="#C2410C" stroke-width="2.5" stroke-linecap="round"/>
<line x1="50.0" y1="364.0" x2="236.0" y2="382.0" stroke="#C2410C" stroke-width="2.5" stroke-linecap="round"/>
<text class="t" x="143.0" y="404.0" fill="#C2410C" font-weight="600" text-anchor="middle" dominant-baseline="central">cresc. : de plus en plus fort</text>
<line x1="444.0" y1="346.0" x2="630.0" y2="364.0" stroke="#185FA5" stroke-width="2.5" stroke-linecap="round"/>
<line x1="444.0" y1="382.0" x2="630.0" y2="364.0" stroke="#185FA5" stroke-width="2.5" stroke-linecap="round"/>
<text class="t" x="537.0" y="404.0" fill="#185FA5" font-weight="600" text-anchor="middle" dominant-baseline="central">decresc. : de moins en moins fort</text>
<text class="ts" x="340.0" y="364.0" text-anchor="middle" dominant-baseline="central">comme une vague</text>
<text class="ts" x="340.0" y="380.0" text-anchor="middle" dominant-baseline="central">qui grossit ou qui s'éteint</text>
</svg>
