<svg width="100%" viewBox="0 0 680 480" xmlns="http://www.w3.org/2000/svg"><title>Un même arbre, six façons de fabriquer une image</title>
<rect x="20.0" y="4.0" width="200.0" height="222.0" rx="10" fill="#FBFAF6" stroke="#D8D5CB" stroke-width="1"/>
<rect x="240.0" y="4.0" width="200.0" height="222.0" rx="10" fill="#FBFAF6" stroke="#D8D5CB" stroke-width="1"/>
<rect x="460.0" y="4.0" width="200.0" height="222.0" rx="10" fill="#FBFAF6" stroke="#D8D5CB" stroke-width="1"/>
<rect x="20.0" y="234.0" width="200.0" height="222.0" rx="10" fill="#FBFAF6" stroke="#D8D5CB" stroke-width="1"/>
<rect x="240.0" y="234.0" width="200.0" height="222.0" rx="10" fill="#FBFAF6" stroke="#D8D5CB" stroke-width="1"/>
<rect x="460.0" y="234.0" width="200.0" height="222.0" rx="10" fill="#FBFAF6" stroke="#D8D5CB" stroke-width="1"/>
<rect x="45.0" y="16.0" width="150.0" height="100.0" rx="0" fill="#BFDDF5" stroke="none" stroke-width="0"/>
<rect x="45.0" y="88.0" width="150.0" height="28.0" rx="0" fill="#8DBE5A" stroke="none" stroke-width="0"/>
<polygon points="115.0,96.0 116.0,61.0 124.0,61.0 125.0,96.0" fill="#6B4A2B" stroke="#4A3219" stroke-width="1" stroke-linejoin="round"/>
<circle cx="102.0" cy="52.0" r="18" fill="#2F6B1E" stroke="none" stroke-width="1.5"/>
<circle cx="136.0" cy="52.0" r="18" fill="#2F6B1E" stroke="none" stroke-width="1.5"/>
<circle cx="120.0" cy="40.0" r="20" fill="#3F7F2A" stroke="none" stroke-width="1.5"/>
<circle cx="114.0" cy="58.0" r="16" fill="#4E9A2E" stroke="none" stroke-width="1.5"/>
<circle cx="130.0" cy="46.0" r="14" fill="#5BA838" stroke="none" stroke-width="1.5"/>
<ellipse cx="128.0" cy="98.0" rx="26" ry="4" fill="#6E9A45" stroke="none" stroke-width="1.5"/>
<rect x="45.0" y="16.0" width="150.0" height="100.0" rx="0" fill="none" stroke="#1a1a18" stroke-width="1.2"/>
<rect x="42.0" y="129.0" width="28.0" height="18.0" rx="3" fill="#5F5E5A" stroke="#1a1a18" stroke-width="1.2"/>
<rect x="50.0" y="126.0" width="10.0" height="4.0" rx="0" fill="#5F5E5A" stroke="#1a1a18" stroke-width="1"/>
<circle cx="56.0" cy="138.0" r="6" fill="#CFE3F5" stroke="#1a1a18" stroke-width="1.5"/>
<text class="t" x="82.0" y="138.0" text-anchor="start" dominant-baseline="central" fill="#1a1a18" font-weight="700">photographiée</text>
<text class="t" x="120.0" y="164.0" text-anchor="middle" dominant-baseline="central">l'appareil enregistre</text>
<text class="t" x="120.0" y="182.0" text-anchor="middle" dominant-baseline="central">ce qui est devant lui</text>
<rect x="46.0" y="198.0" width="148.0" height="20.0" rx="10" fill="#ffffff" stroke="#5F5E5A" stroke-width="1.2"/>
<text class="ts" x="120.0" y="208.0" text-anchor="middle" dominant-baseline="central" font-weight="600"><tspan fill="#3B6D11">informer</tspan><tspan fill="#5F5E5A"> ou </tspan><tspan fill="#185FA5">exprimer</tspan></text>
<rect x="265.0" y="16.0" width="150.0" height="100.0" rx="0" fill="#ffffff" stroke="none" stroke-width="0"/>
<path d="M335 98 L336 62 M345 98 L344 62" fill="none" stroke="#444441" stroke-width="1.5" stroke-linecap="round" stroke-linejoin="round"/>
<line x1="336.0" y1="68.0" x2="344.0" y2="64.0" stroke="#8A8880" stroke-width="1" stroke-linecap="round"/>
<line x1="336.0" y1="74.0" x2="344.0" y2="70.0" stroke="#8A8880" stroke-width="1" stroke-linecap="round"/>
<line x1="336.0" y1="80.0" x2="344.0" y2="76.0" stroke="#8A8880" stroke-width="1" stroke-linecap="round"/>
<line x1="336.0" y1="86.0" x2="344.0" y2="82.0" stroke="#8A8880" stroke-width="1" stroke-linecap="round"/>
<line x1="336.0" y1="92.0" x2="344.0" y2="88.0" stroke="#8A8880" stroke-width="1" stroke-linecap="round"/>
<path d="M336 64 C 290 70, 294 34, 318 34 C 322 18, 358 18, 362 32 C 388 34, 388 68, 344 64" fill="none" stroke="#444441" stroke-width="1.5" stroke-linecap="round" stroke-linejoin="round"/>
<line x1="285.0" y1="98.0" x2="395.0" y2="98.0" stroke="#8A8880" stroke-width="1.2" stroke-linecap="round"/>
<rect x="265.0" y="16.0" width="150.0" height="100.0" rx="0" fill="none" stroke="#1a1a18" stroke-width="1.2"/>
<rect x="260.0" y="134.0" width="24.0" height="8.0" rx="0" fill="#F2C14E" stroke="#1a1a18" stroke-width="1.2"/>
<polygon points="284.0,134.0 294.0,138.0 284.0,142.0" fill="#E8C9A0" stroke="#1a1a18" stroke-width="1.2" stroke-linejoin="round"/>
<text class="t" x="302.0" y="138.0" text-anchor="start" dominant-baseline="central" fill="#1a1a18" font-weight="700">dessinée</text>
<text class="t" x="340.0" y="164.0" text-anchor="middle" dominant-baseline="central">un trait fait à la main,</text>
<text class="t" x="340.0" y="182.0" text-anchor="middle" dominant-baseline="central">au crayon</text>
<rect x="280.0" y="198.0" width="120.0" height="20.0" rx="10" fill="#E6F1FB" stroke="#185FA5" stroke-width="1.2"/>
<text class="ts" x="340.0" y="208.0" text-anchor="middle" dominant-baseline="central" fill="#185FA5" font-weight="600">pour exprimer</text>
<rect x="485.0" y="16.0" width="150.0" height="100.0" rx="0" fill="#F6D48A" stroke="none" stroke-width="0"/>
<line x1="491.0" y1="24.0" x2="629.0" y2="28.0" stroke="#F6C66A" stroke-width="7" stroke-linecap="round"/>
<line x1="491.0" y1="33.0" x2="629.0" y2="37.0" stroke="#F2A65A" stroke-width="7" stroke-linecap="round"/>
<line x1="491.0" y1="42.0" x2="629.0" y2="46.0" stroke="#F6C66A" stroke-width="7" stroke-linecap="round"/>
<line x1="491.0" y1="51.0" x2="629.0" y2="55.0" stroke="#F2A65A" stroke-width="7" stroke-linecap="round"/>
<line x1="491.0" y1="60.0" x2="629.0" y2="64.0" stroke="#F6C66A" stroke-width="7" stroke-linecap="round"/>
<line x1="491.0" y1="69.0" x2="629.0" y2="73.0" stroke="#F2A65A" stroke-width="7" stroke-linecap="round"/>
<rect x="485.0" y="88.0" width="150.0" height="28.0" rx="0" fill="#7FAF4A" stroke="none" stroke-width="0"/>
<line x1="560.0" y1="100.0" x2="560.0" y2="62.0" stroke="#6B4A2B" stroke-width="9" stroke-linecap="round"/>
<line x1="552.7" y1="55.8" x2="562.7" y2="49.8" stroke="#2F6B1E" stroke-width="7" stroke-linecap="round"/>
<line x1="571.3" y1="57.9" x2="581.3" y2="51.9" stroke="#8FB339" stroke-width="7" stroke-linecap="round"/>
<line x1="528.3" y1="43.6" x2="538.3" y2="37.6" stroke="#4E9A2E" stroke-width="7" stroke-linecap="round"/>
<line x1="569.3" y1="55.1" x2="579.3" y2="49.1" stroke="#2F6B1E" stroke-width="7" stroke-linecap="round"/>
<line x1="556.1" y1="64.4" x2="566.1" y2="58.4" stroke="#2F6B1E" stroke-width="7" stroke-linecap="round"/>
<line x1="556.9" y1="50.7" x2="566.9" y2="44.7" stroke="#4E9A2E" stroke-width="7" stroke-linecap="round"/>
<line x1="541.5" y1="44.1" x2="551.5" y2="38.1" stroke="#2F6B1E" stroke-width="7" stroke-linecap="round"/>
<line x1="543.1" y1="49.2" x2="553.1" y2="43.2" stroke="#4E9A2E" stroke-width="7" stroke-linecap="round"/>
<line x1="582.8" y1="58.1" x2="592.8" y2="52.1" stroke="#8FB339" stroke-width="7" stroke-linecap="round"/>
<line x1="539.0" y1="58.5" x2="549.0" y2="52.5" stroke="#8FB339" stroke-width="7" stroke-linecap="round"/>
<line x1="533.6" y1="47.8" x2="543.6" y2="41.8" stroke="#2F6B1E" stroke-width="7" stroke-linecap="round"/>
<line x1="536.2" y1="46.5" x2="546.2" y2="40.5" stroke="#8FB339" stroke-width="7" stroke-linecap="round"/>
<line x1="574.7" y1="61.5" x2="584.7" y2="55.5" stroke="#2F6B1E" stroke-width="7" stroke-linecap="round"/>
<line x1="542.7" y1="46.0" x2="552.7" y2="40.0" stroke="#C7D86A" stroke-width="7" stroke-linecap="round"/>
<line x1="557.6" y1="43.5" x2="567.6" y2="37.5" stroke="#C7D86A" stroke-width="7" stroke-linecap="round"/>
<line x1="549.6" y1="57.0" x2="559.6" y2="51.0" stroke="#4E9A2E" stroke-width="7" stroke-linecap="round"/>
<line x1="552.4" y1="48.2" x2="562.4" y2="42.2" stroke="#8FB339" stroke-width="7" stroke-linecap="round"/>
<line x1="525.8" y1="50.2" x2="535.8" y2="44.2" stroke="#C7D86A" stroke-width="7" stroke-linecap="round"/>
<line x1="547.2" y1="72.8" x2="557.2" y2="66.8" stroke="#2F6B1E" stroke-width="7" stroke-linecap="round"/>
<line x1="549.4" y1="52.7" x2="559.4" y2="46.7" stroke="#8FB339" stroke-width="7" stroke-linecap="round"/>
<line x1="564.6" y1="61.3" x2="574.6" y2="55.3" stroke="#2F6B1E" stroke-width="7" stroke-linecap="round"/>
<line x1="557.5" y1="52.6" x2="567.5" y2="46.6" stroke="#8FB339" stroke-width="7" stroke-linecap="round"/>
<line x1="548.7" y1="59.2" x2="558.7" y2="53.2" stroke="#C7D86A" stroke-width="7" stroke-linecap="round"/>
<line x1="541.5" y1="48.4" x2="551.5" y2="42.4" stroke="#2F6B1E" stroke-width="7" stroke-linecap="round"/>
<line x1="570.0" y1="49.6" x2="580.0" y2="43.6" stroke="#2F6B1E" stroke-width="7" stroke-linecap="round"/>
<line x1="577.0" y1="58.4" x2="587.0" y2="52.4" stroke="#C7D86A" stroke-width="7" stroke-linecap="round"/>
<rect x="485.0" y="16.0" width="150.0" height="100.0" rx="0" fill="none" stroke="#1a1a18" stroke-width="1.2"/>
<rect x="478.0" y="135.0" width="20.0" height="6.0" rx="3" fill="#B5793A" stroke="#1a1a18" stroke-width="1.2"/>
<rect x="498.0" y="134.0" width="8.0" height="8.0" rx="0" fill="#B9B9B9" stroke="#1a1a18" stroke-width="1.2"/>
<path d="M506 134 C 512 134, 515 137, 518 138 C 515 139, 512 142, 506 142 Z" fill="#3F7F2A" stroke="#1a1a18" stroke-width="1" stroke-linecap="round" stroke-linejoin="round"/>
<text class="t" x="522.0" y="138.0" text-anchor="start" dominant-baseline="central" fill="#1a1a18" font-weight="700">peinte</text>
<text class="t" x="560.0" y="164.0" text-anchor="middle" dominant-baseline="central">des couleurs posées</text>
<text class="t" x="560.0" y="182.0" text-anchor="middle" dominant-baseline="central">en touches</text>
<rect x="500.0" y="198.0" width="120.0" height="20.0" rx="10" fill="#E6F1FB" stroke="#185FA5" stroke-width="1.2"/>
<text class="ts" x="560.0" y="208.0" text-anchor="middle" dominant-baseline="central" fill="#185FA5" font-weight="600">pour exprimer</text>
<rect x="45.0" y="246.0" width="150.0" height="100.0" rx="0" fill="#EDE6F7" stroke="none" stroke-width="0"/>
<polygon points="45.0,320.0 195.0,316.0 195.0,346.0 45.0,346.0" fill="#E9C46A" stroke="none" stroke-width="1.5" stroke-linejoin="round"/>
<polygon points="111.0,334.0 113.0,290.0 129.0,292.0 127.0,334.0" fill="#E8E4D8" stroke="#8A8880" stroke-width="1" stroke-linejoin="round"/>
<line x1="114.0" y1="296.0" x2="125.0" y2="296.0" stroke="#8A8880" stroke-width="1" stroke-linecap="round"/>
<line x1="114.0" y1="302.0" x2="125.0" y2="302.0" stroke="#8A8880" stroke-width="1" stroke-linecap="round"/>
<line x1="114.0" y1="308.0" x2="125.0" y2="308.0" stroke="#8A8880" stroke-width="1" stroke-linecap="round"/>
<line x1="114.0" y1="314.0" x2="125.0" y2="314.0" stroke="#8A8880" stroke-width="1" stroke-linecap="round"/>
<line x1="114.0" y1="320.0" x2="125.0" y2="320.0" stroke="#8A8880" stroke-width="1" stroke-linecap="round"/>
<line x1="114.0" y1="326.0" x2="125.0" y2="326.0" stroke="#8A8880" stroke-width="1" stroke-linecap="round"/>
<polygon points="83.0,290.0 89.0,262.0 111.0,254.0 123.0,268.0 115.0,296.0" fill="#4E9A2E" stroke="#2F6B1E" stroke-width="1" stroke-linejoin="round"/>
<polygon points="115.0,260.0 141.0,252.0 161.0,272.0 153.0,294.0 125.0,296.0" fill="#2A9D8F" stroke="#0F6E56" stroke-width="1" stroke-linejoin="round"/>
<circle cx="133.0" cy="264.0" r="2.5" fill="#ffffff" stroke="none" stroke-width="1.5"/>
<circle cx="143.0" cy="276.0" r="2.5" fill="#ffffff" stroke="none" stroke-width="1.5"/>
<circle cx="131.0" cy="282.0" r="2.5" fill="#ffffff" stroke="none" stroke-width="1.5"/>
<circle cx="149.0" cy="286.0" r="2.5" fill="#ffffff" stroke="none" stroke-width="1.5"/>
<polygon points="97.0,280.0 121.0,276.0 135.0,292.0 105.0,300.0" fill="#8FB339" stroke="#3B6D11" stroke-width="1" stroke-linejoin="round"/>
<rect x="45.0" y="246.0" width="150.0" height="100.0" rx="0" fill="none" stroke="#1a1a18" stroke-width="1.2"/>
<line x1="50.0" y1="372.0" x2="72.0" y2="360.0" stroke="#1a1a18" stroke-width="2" stroke-linecap="round"/>
<line x1="50.0" y1="364.0" x2="72.0" y2="376.0" stroke="#1a1a18" stroke-width="2" stroke-linecap="round"/>
<circle cx="45.0" cy="375.0" r="5" fill="none" stroke="#C2410C" stroke-width="2"/>
<circle cx="45.0" cy="361.0" r="5" fill="none" stroke="#C2410C" stroke-width="2"/>
<text class="t" x="82.0" y="368.0" text-anchor="start" dominant-baseline="central" fill="#1a1a18" font-weight="700">collée</text>
<text class="t" x="120.0" y="394.0" text-anchor="middle" dominant-baseline="central">papiers découpés,</text>
<text class="t" x="120.0" y="412.0" text-anchor="middle" dominant-baseline="central">puis collés</text>
<rect x="60.0" y="428.0" width="120.0" height="20.0" rx="10" fill="#E6F1FB" stroke="#185FA5" stroke-width="1.2"/>
<text class="ts" x="120.0" y="438.0" text-anchor="middle" dominant-baseline="central" fill="#185FA5" font-weight="600">pour exprimer</text>
<rect x="259.0" y="240.0" width="162.0" height="112.0" rx="8" fill="#1a1a18" stroke="#1a1a18" stroke-width="1"/>
<rect x="265.0" y="246.0" width="10.0" height="10.0" rx="0" fill="#BFDDF5" stroke="#ffffff" stroke-width="0.4"/>
<rect x="275.0" y="246.0" width="10.0" height="10.0" rx="0" fill="#BFDDF5" stroke="#ffffff" stroke-width="0.4"/>
<rect x="285.0" y="246.0" width="10.0" height="10.0" rx="0" fill="#BFDDF5" stroke="#ffffff" stroke-width="0.4"/>
<rect x="295.0" y="246.0" width="10.0" height="10.0" rx="0" fill="#BFDDF5" stroke="#ffffff" stroke-width="0.4"/>
<rect x="305.0" y="246.0" width="10.0" height="10.0" rx="0" fill="#BFDDF5" stroke="#ffffff" stroke-width="0.4"/>
<rect x="315.0" y="246.0" width="10.0" height="10.0" rx="0" fill="#BFDDF5" stroke="#ffffff" stroke-width="0.4"/>
<rect x="325.0" y="246.0" width="10.0" height="10.0" rx="0" fill="#BFDDF5" stroke="#ffffff" stroke-width="0.4"/>
<rect x="335.0" y="246.0" width="10.0" height="10.0" rx="0" fill="#BFDDF5" stroke="#ffffff" stroke-width="0.4"/>
<rect x="345.0" y="246.0" width="10.0" height="10.0" rx="0" fill="#BFDDF5" stroke="#ffffff" stroke-width="0.4"/>
<rect x="355.0" y="246.0" width="10.0" height="10.0" rx="0" fill="#BFDDF5" stroke="#ffffff" stroke-width="0.4"/>
<rect x="365.0" y="246.0" width="10.0" height="10.0" rx="0" fill="#BFDDF5" stroke="#ffffff" stroke-width="0.4"/>
<rect x="375.0" y="246.0" width="10.0" height="10.0" rx="0" fill="#BFDDF5" stroke="#ffffff" stroke-width="0.4"/>
<rect x="385.0" y="246.0" width="10.0" height="10.0" rx="0" fill="#BFDDF5" stroke="#ffffff" stroke-width="0.4"/>
<rect x="395.0" y="246.0" width="10.0" height="10.0" rx="0" fill="#BFDDF5" stroke="#ffffff" stroke-width="0.4"/>
<rect x="405.0" y="246.0" width="10.0" height="10.0" rx="0" fill="#BFDDF5" stroke="#ffffff" stroke-width="0.4"/>
<rect x="265.0" y="256.0" width="10.0" height="10.0" rx="0" fill="#BFDDF5" stroke="#ffffff" stroke-width="0.4"/>
<rect x="275.0" y="256.0" width="10.0" height="10.0" rx="0" fill="#BFDDF5" stroke="#ffffff" stroke-width="0.4"/>
<rect x="285.0" y="256.0" width="10.0" height="10.0" rx="0" fill="#BFDDF5" stroke="#ffffff" stroke-width="0.4"/>
<rect x="295.0" y="256.0" width="10.0" height="10.0" rx="0" fill="#BFDDF5" stroke="#ffffff" stroke-width="0.4"/>
<rect x="305.0" y="256.0" width="10.0" height="10.0" rx="0" fill="#BFDDF5" stroke="#ffffff" stroke-width="0.4"/>
<rect x="315.0" y="256.0" width="10.0" height="10.0" rx="0" fill="#BFDDF5" stroke="#ffffff" stroke-width="0.4"/>
<rect x="325.0" y="256.0" width="10.0" height="10.0" rx="0" fill="#5BA838" stroke="#ffffff" stroke-width="0.4"/>
<rect x="335.0" y="256.0" width="10.0" height="10.0" rx="0" fill="#5BA838" stroke="#ffffff" stroke-width="0.4"/>
<rect x="345.0" y="256.0" width="10.0" height="10.0" rx="0" fill="#BFDDF5" stroke="#ffffff" stroke-width="0.4"/>
<rect x="355.0" y="256.0" width="10.0" height="10.0" rx="0" fill="#BFDDF5" stroke="#ffffff" stroke-width="0.4"/>
<rect x="365.0" y="256.0" width="10.0" height="10.0" rx="0" fill="#BFDDF5" stroke="#ffffff" stroke-width="0.4"/>
<rect x="375.0" y="256.0" width="10.0" height="10.0" rx="0" fill="#BFDDF5" stroke="#ffffff" stroke-width="0.4"/>
<rect x="385.0" y="256.0" width="10.0" height="10.0" rx="0" fill="#BFDDF5" stroke="#ffffff" stroke-width="0.4"/>
<rect x="395.0" y="256.0" width="10.0" height="10.0" rx="0" fill="#BFDDF5" stroke="#ffffff" stroke-width="0.4"/>
<rect x="405.0" y="256.0" width="10.0" height="10.0" rx="0" fill="#BFDDF5" stroke="#ffffff" stroke-width="0.4"/>
<rect x="265.0" y="266.0" width="10.0" height="10.0" rx="0" fill="#BFDDF5" stroke="#ffffff" stroke-width="0.4"/>
<rect x="275.0" y="266.0" width="10.0" height="10.0" rx="0" fill="#BFDDF5" stroke="#ffffff" stroke-width="0.4"/>
<rect x="285.0" y="266.0" width="10.0" height="10.0" rx="0" fill="#BFDDF5" stroke="#ffffff" stroke-width="0.4"/>
<rect x="295.0" y="266.0" width="10.0" height="10.0" rx="0" fill="#BFDDF5" stroke="#ffffff" stroke-width="0.4"/>
<rect x="305.0" y="266.0" width="10.0" height="10.0" rx="0" fill="#5BA838" stroke="#ffffff" stroke-width="0.4"/>
<rect x="315.0" y="266.0" width="10.0" height="10.0" rx="0" fill="#5BA838" stroke="#ffffff" stroke-width="0.4"/>
<rect x="325.0" y="266.0" width="10.0" height="10.0" rx="0" fill="#2F6B1E" stroke="#ffffff" stroke-width="0.4"/>
<rect x="335.0" y="266.0" width="10.0" height="10.0" rx="0" fill="#2F6B1E" stroke="#ffffff" stroke-width="0.4"/>
<rect x="345.0" y="266.0" width="10.0" height="10.0" rx="0" fill="#5BA838" stroke="#ffffff" stroke-width="0.4"/>
<rect x="355.0" y="266.0" width="10.0" height="10.0" rx="0" fill="#5BA838" stroke="#ffffff" stroke-width="0.4"/>
<rect x="365.0" y="266.0" width="10.0" height="10.0" rx="0" fill="#BFDDF5" stroke="#ffffff" stroke-width="0.4"/>
<rect x="375.0" y="266.0" width="10.0" height="10.0" rx="0" fill="#BFDDF5" stroke="#ffffff" stroke-width="0.4"/>
<rect x="385.0" y="266.0" width="10.0" height="10.0" rx="0" fill="#BFDDF5" stroke="#ffffff" stroke-width="0.4"/>
<rect x="395.0" y="266.0" width="10.0" height="10.0" rx="0" fill="#BFDDF5" stroke="#ffffff" stroke-width="0.4"/>
<rect x="405.0" y="266.0" width="10.0" height="10.0" rx="0" fill="#BFDDF5" stroke="#ffffff" stroke-width="0.4"/>
<rect x="265.0" y="276.0" width="10.0" height="10.0" rx="0" fill="#BFDDF5" stroke="#ffffff" stroke-width="0.4"/>
<rect x="275.0" y="276.0" width="10.0" height="10.0" rx="0" fill="#BFDDF5" stroke="#ffffff" stroke-width="0.4"/>
<rect x="285.0" y="276.0" width="10.0" height="10.0" rx="0" fill="#BFDDF5" stroke="#ffffff" stroke-width="0.4"/>
<rect x="295.0" y="276.0" width="10.0" height="10.0" rx="0" fill="#5BA838" stroke="#ffffff" stroke-width="0.4"/>
<rect x="305.0" y="276.0" width="10.0" height="10.0" rx="0" fill="#2F6B1E" stroke="#ffffff" stroke-width="0.4"/>
<rect x="315.0" y="276.0" width="10.0" height="10.0" rx="0" fill="#2F6B1E" stroke="#ffffff" stroke-width="0.4"/>
<rect x="325.0" y="276.0" width="10.0" height="10.0" rx="0" fill="#2F6B1E" stroke="#ffffff" stroke-width="0.4"/>
<rect x="335.0" y="276.0" width="10.0" height="10.0" rx="0" fill="#2F6B1E" stroke="#ffffff" stroke-width="0.4"/>
<rect x="345.0" y="276.0" width="10.0" height="10.0" rx="0" fill="#2F6B1E" stroke="#ffffff" stroke-width="0.4"/>
<rect x="355.0" y="276.0" width="10.0" height="10.0" rx="0" fill="#2F6B1E" stroke="#ffffff" stroke-width="0.4"/>
<rect x="365.0" y="276.0" width="10.0" height="10.0" rx="0" fill="#5BA838" stroke="#ffffff" stroke-width="0.4"/>
<rect x="375.0" y="276.0" width="10.0" height="10.0" rx="0" fill="#BFDDF5" stroke="#ffffff" stroke-width="0.4"/>
<rect x="385.0" y="276.0" width="10.0" height="10.0" rx="0" fill="#BFDDF5" stroke="#ffffff" stroke-width="0.4"/>
<rect x="395.0" y="276.0" width="10.0" height="10.0" rx="0" fill="#BFDDF5" stroke="#ffffff" stroke-width="0.4"/>
<rect x="405.0" y="276.0" width="10.0" height="10.0" rx="0" fill="#BFDDF5" stroke="#ffffff" stroke-width="0.4"/>
<rect x="265.0" y="286.0" width="10.0" height="10.0" rx="0" fill="#BFDDF5" stroke="#ffffff" stroke-width="0.4"/>
<rect x="275.0" y="286.0" width="10.0" height="10.0" rx="0" fill="#BFDDF5" stroke="#ffffff" stroke-width="0.4"/>
<rect x="285.0" y="286.0" width="10.0" height="10.0" rx="0" fill="#BFDDF5" stroke="#ffffff" stroke-width="0.4"/>
<rect x="295.0" y="286.0" width="10.0" height="10.0" rx="0" fill="#5BA838" stroke="#ffffff" stroke-width="0.4"/>
<rect x="305.0" y="286.0" width="10.0" height="10.0" rx="0" fill="#2F6B1E" stroke="#ffffff" stroke-width="0.4"/>
<rect x="315.0" y="286.0" width="10.0" height="10.0" rx="0" fill="#2F6B1E" stroke="#ffffff" stroke-width="0.4"/>
<rect x="325.0" y="286.0" width="10.0" height="10.0" rx="0" fill="#2F6B1E" stroke="#ffffff" stroke-width="0.4"/>
<rect x="335.0" y="286.0" width="10.0" height="10.0" rx="0" fill="#2F6B1E" stroke="#ffffff" stroke-width="0.4"/>
<rect x="345.0" y="286.0" width="10.0" height="10.0" rx="0" fill="#2F6B1E" stroke="#ffffff" stroke-width="0.4"/>
<rect x="355.0" y="286.0" width="10.0" height="10.0" rx="0" fill="#2F6B1E" stroke="#ffffff" stroke-width="0.4"/>
<rect x="365.0" y="286.0" width="10.0" height="10.0" rx="0" fill="#5BA838" stroke="#ffffff" stroke-width="0.4"/>
<rect x="375.0" y="286.0" width="10.0" height="10.0" rx="0" fill="#BFDDF5" stroke="#ffffff" stroke-width="0.4"/>
<rect x="385.0" y="286.0" width="10.0" height="10.0" rx="0" fill="#BFDDF5" stroke="#ffffff" stroke-width="0.4"/>
<rect x="395.0" y="286.0" width="10.0" height="10.0" rx="0" fill="#BFDDF5" stroke="#ffffff" stroke-width="0.4"/>
<rect x="405.0" y="286.0" width="10.0" height="10.0" rx="0" fill="#BFDDF5" stroke="#ffffff" stroke-width="0.4"/>
<rect x="265.0" y="296.0" width="10.0" height="10.0" rx="0" fill="#BFDDF5" stroke="#ffffff" stroke-width="0.4"/>
<rect x="275.0" y="296.0" width="10.0" height="10.0" rx="0" fill="#BFDDF5" stroke="#ffffff" stroke-width="0.4"/>
<rect x="285.0" y="296.0" width="10.0" height="10.0" rx="0" fill="#BFDDF5" stroke="#ffffff" stroke-width="0.4"/>
<rect x="295.0" y="296.0" width="10.0" height="10.0" rx="0" fill="#BFDDF5" stroke="#ffffff" stroke-width="0.4"/>
<rect x="305.0" y="296.0" width="10.0" height="10.0" rx="0" fill="#5BA838" stroke="#ffffff" stroke-width="0.4"/>
<rect x="315.0" y="296.0" width="10.0" height="10.0" rx="0" fill="#5BA838" stroke="#ffffff" stroke-width="0.4"/>
<rect x="325.0" y="296.0" width="10.0" height="10.0" rx="0" fill="#2F6B1E" stroke="#ffffff" stroke-width="0.4"/>
<rect x="335.0" y="296.0" width="10.0" height="10.0" rx="0" fill="#2F6B1E" stroke="#ffffff" stroke-width="0.4"/>
<rect x="345.0" y="296.0" width="10.0" height="10.0" rx="0" fill="#5BA838" stroke="#ffffff" stroke-width="0.4"/>
<rect x="355.0" y="296.0" width="10.0" height="10.0" rx="0" fill="#5BA838" stroke="#ffffff" stroke-width="0.4"/>
<rect x="365.0" y="296.0" width="10.0" height="10.0" rx="0" fill="#BFDDF5" stroke="#ffffff" stroke-width="0.4"/>
<rect x="375.0" y="296.0" width="10.0" height="10.0" rx="0" fill="#BFDDF5" stroke="#ffffff" stroke-width="0.4"/>
<rect x="385.0" y="296.0" width="10.0" height="10.0" rx="0" fill="#BFDDF5" stroke="#ffffff" stroke-width="0.4"/>
<rect x="395.0" y="296.0" width="10.0" height="10.0" rx="0" fill="#BFDDF5" stroke="#ffffff" stroke-width="0.4"/>
<rect x="405.0" y="296.0" width="10.0" height="10.0" rx="0" fill="#BFDDF5" stroke="#ffffff" stroke-width="0.4"/>
<rect x="265.0" y="306.0" width="10.0" height="10.0" rx="0" fill="#BFDDF5" stroke="#ffffff" stroke-width="0.4"/>
<rect x="275.0" y="306.0" width="10.0" height="10.0" rx="0" fill="#BFDDF5" stroke="#ffffff" stroke-width="0.4"/>
<rect x="285.0" y="306.0" width="10.0" height="10.0" rx="0" fill="#BFDDF5" stroke="#ffffff" stroke-width="0.4"/>
<rect x="295.0" y="306.0" width="10.0" height="10.0" rx="0" fill="#BFDDF5" stroke="#ffffff" stroke-width="0.4"/>
<rect x="305.0" y="306.0" width="10.0" height="10.0" rx="0" fill="#BFDDF5" stroke="#ffffff" stroke-width="0.4"/>
<rect x="315.0" y="306.0" width="10.0" height="10.0" rx="0" fill="#BFDDF5" stroke="#ffffff" stroke-width="0.4"/>
<rect x="325.0" y="306.0" width="10.0" height="10.0" rx="0" fill="#6B4A2B" stroke="#ffffff" stroke-width="0.4"/>
<rect x="335.0" y="306.0" width="10.0" height="10.0" rx="0" fill="#6B4A2B" stroke="#ffffff" stroke-width="0.4"/>
<rect x="345.0" y="306.0" width="10.0" height="10.0" rx="0" fill="#BFDDF5" stroke="#ffffff" stroke-width="0.4"/>
<rect x="355.0" y="306.0" width="10.0" height="10.0" rx="0" fill="#BFDDF5" stroke="#ffffff" stroke-width="0.4"/>
<rect x="365.0" y="306.0" width="10.0" height="10.0" rx="0" fill="#BFDDF5" stroke="#ffffff" stroke-width="0.4"/>
<rect x="375.0" y="306.0" width="10.0" height="10.0" rx="0" fill="#BFDDF5" stroke="#ffffff" stroke-width="0.4"/>
<rect x="385.0" y="306.0" width="10.0" height="10.0" rx="0" fill="#BFDDF5" stroke="#ffffff" stroke-width="0.4"/>
<rect x="395.0" y="306.0" width="10.0" height="10.0" rx="0" fill="#BFDDF5" stroke="#ffffff" stroke-width="0.4"/>
<rect x="405.0" y="306.0" width="10.0" height="10.0" rx="0" fill="#BFDDF5" stroke="#ffffff" stroke-width="0.4"/>
<rect x="265.0" y="316.0" width="10.0" height="10.0" rx="0" fill="#BFDDF5" stroke="#ffffff" stroke-width="0.4"/>
<rect x="275.0" y="316.0" width="10.0" height="10.0" rx="0" fill="#BFDDF5" stroke="#ffffff" stroke-width="0.4"/>
<rect x="285.0" y="316.0" width="10.0" height="10.0" rx="0" fill="#BFDDF5" stroke="#ffffff" stroke-width="0.4"/>
<rect x="295.0" y="316.0" width="10.0" height="10.0" rx="0" fill="#BFDDF5" stroke="#ffffff" stroke-width="0.4"/>
<rect x="305.0" y="316.0" width="10.0" height="10.0" rx="0" fill="#BFDDF5" stroke="#ffffff" stroke-width="0.4"/>
<rect x="315.0" y="316.0" width="10.0" height="10.0" rx="0" fill="#BFDDF5" stroke="#ffffff" stroke-width="0.4"/>
<rect x="325.0" y="316.0" width="10.0" height="10.0" rx="0" fill="#6B4A2B" stroke="#ffffff" stroke-width="0.4"/>
<rect x="335.0" y="316.0" width="10.0" height="10.0" rx="0" fill="#6B4A2B" stroke="#ffffff" stroke-width="0.4"/>
<rect x="345.0" y="316.0" width="10.0" height="10.0" rx="0" fill="#BFDDF5" stroke="#ffffff" stroke-width="0.4"/>
<rect x="355.0" y="316.0" width="10.0" height="10.0" rx="0" fill="#BFDDF5" stroke="#ffffff" stroke-width="0.4"/>
<rect x="365.0" y="316.0" width="10.0" height="10.0" rx="0" fill="#BFDDF5" stroke="#ffffff" stroke-width="0.4"/>
<rect x="375.0" y="316.0" width="10.0" height="10.0" rx="0" fill="#BFDDF5" stroke="#ffffff" stroke-width="0.4"/>
<rect x="385.0" y="316.0" width="10.0" height="10.0" rx="0" fill="#BFDDF5" stroke="#ffffff" stroke-width="0.4"/>
<rect x="395.0" y="316.0" width="10.0" height="10.0" rx="0" fill="#BFDDF5" stroke="#ffffff" stroke-width="0.4"/>
<rect x="405.0" y="316.0" width="10.0" height="10.0" rx="0" fill="#BFDDF5" stroke="#ffffff" stroke-width="0.4"/>
<rect x="265.0" y="326.0" width="10.0" height="10.0" rx="0" fill="#8DBE5A" stroke="#ffffff" stroke-width="0.4"/>
<rect x="275.0" y="326.0" width="10.0" height="10.0" rx="0" fill="#8DBE5A" stroke="#ffffff" stroke-width="0.4"/>
<rect x="285.0" y="326.0" width="10.0" height="10.0" rx="0" fill="#8DBE5A" stroke="#ffffff" stroke-width="0.4"/>
<rect x="295.0" y="326.0" width="10.0" height="10.0" rx="0" fill="#8DBE5A" stroke="#ffffff" stroke-width="0.4"/>
<rect x="305.0" y="326.0" width="10.0" height="10.0" rx="0" fill="#8DBE5A" stroke="#ffffff" stroke-width="0.4"/>
<rect x="315.0" y="326.0" width="10.0" height="10.0" rx="0" fill="#8DBE5A" stroke="#ffffff" stroke-width="0.4"/>
<rect x="325.0" y="326.0" width="10.0" height="10.0" rx="0" fill="#6B4A2B" stroke="#ffffff" stroke-width="0.4"/>
<rect x="335.0" y="326.0" width="10.0" height="10.0" rx="0" fill="#6B4A2B" stroke="#ffffff" stroke-width="0.4"/>
<rect x="345.0" y="326.0" width="10.0" height="10.0" rx="0" fill="#8DBE5A" stroke="#ffffff" stroke-width="0.4"/>
<rect x="355.0" y="326.0" width="10.0" height="10.0" rx="0" fill="#8DBE5A" stroke="#ffffff" stroke-width="0.4"/>
<rect x="365.0" y="326.0" width="10.0" height="10.0" rx="0" fill="#8DBE5A" stroke="#ffffff" stroke-width="0.4"/>
<rect x="375.0" y="326.0" width="10.0" height="10.0" rx="0" fill="#8DBE5A" stroke="#ffffff" stroke-width="0.4"/>
<rect x="385.0" y="326.0" width="10.0" height="10.0" rx="0" fill="#8DBE5A" stroke="#ffffff" stroke-width="0.4"/>
<rect x="395.0" y="326.0" width="10.0" height="10.0" rx="0" fill="#8DBE5A" stroke="#ffffff" stroke-width="0.4"/>
<rect x="405.0" y="326.0" width="10.0" height="10.0" rx="0" fill="#8DBE5A" stroke="#ffffff" stroke-width="0.4"/>
<rect x="265.0" y="336.0" width="10.0" height="10.0" rx="0" fill="#8DBE5A" stroke="#ffffff" stroke-width="0.4"/>
<rect x="275.0" y="336.0" width="10.0" height="10.0" rx="0" fill="#8DBE5A" stroke="#ffffff" stroke-width="0.4"/>
<rect x="285.0" y="336.0" width="10.0" height="10.0" rx="0" fill="#8DBE5A" stroke="#ffffff" stroke-width="0.4"/>
<rect x="295.0" y="336.0" width="10.0" height="10.0" rx="0" fill="#8DBE5A" stroke="#ffffff" stroke-width="0.4"/>
<rect x="305.0" y="336.0" width="10.0" height="10.0" rx="0" fill="#8DBE5A" stroke="#ffffff" stroke-width="0.4"/>
<rect x="315.0" y="336.0" width="10.0" height="10.0" rx="0" fill="#8DBE5A" stroke="#ffffff" stroke-width="0.4"/>
<rect x="325.0" y="336.0" width="10.0" height="10.0" rx="0" fill="#8DBE5A" stroke="#ffffff" stroke-width="0.4"/>
<rect x="335.0" y="336.0" width="10.0" height="10.0" rx="0" fill="#8DBE5A" stroke="#ffffff" stroke-width="0.4"/>
<rect x="345.0" y="336.0" width="10.0" height="10.0" rx="0" fill="#8DBE5A" stroke="#ffffff" stroke-width="0.4"/>
<rect x="355.0" y="336.0" width="10.0" height="10.0" rx="0" fill="#8DBE5A" stroke="#ffffff" stroke-width="0.4"/>
<rect x="365.0" y="336.0" width="10.0" height="10.0" rx="0" fill="#8DBE5A" stroke="#ffffff" stroke-width="0.4"/>
<rect x="375.0" y="336.0" width="10.0" height="10.0" rx="0" fill="#8DBE5A" stroke="#ffffff" stroke-width="0.4"/>
<rect x="385.0" y="336.0" width="10.0" height="10.0" rx="0" fill="#8DBE5A" stroke="#ffffff" stroke-width="0.4"/>
<rect x="395.0" y="336.0" width="10.0" height="10.0" rx="0" fill="#8DBE5A" stroke="#ffffff" stroke-width="0.4"/>
<rect x="405.0" y="336.0" width="10.0" height="10.0" rx="0" fill="#8DBE5A" stroke="#ffffff" stroke-width="0.4"/>
<rect x="260.0" y="357.0" width="32.0" height="22.0" rx="3" fill="#1a1a18" stroke="#1a1a18" stroke-width="1"/>
<rect x="264.0" y="360.0" width="24.0" height="16.0" rx="0" fill="#9CC0E6" stroke="none" stroke-width="0"/>
<text class="t" x="302.0" y="368.0" text-anchor="start" dominant-baseline="central" fill="#1a1a18" font-weight="700">numérique</text>
<text class="t" x="340.0" y="394.0" text-anchor="middle" dominant-baseline="central">faite ou retouchée sur</text>
<text class="t" x="340.0" y="412.0" text-anchor="middle" dominant-baseline="central">écran : des pixels</text>
<rect x="280.0" y="428.0" width="120.0" height="20.0" rx="10" fill="#E6F1FB" stroke="#185FA5" stroke-width="1.2"/>
<text class="ts" x="340.0" y="438.0" text-anchor="middle" dominant-baseline="central" fill="#185FA5" font-weight="600">pour exprimer</text>
<rect x="485.0" y="246.0" width="150.0" height="100.0" rx="0" fill="#ffffff" stroke="none" stroke-width="0"/>
<circle cx="521.0" cy="272.0" r="20" fill="#EAF3DE" stroke="#3B6D11" stroke-width="1.5"/>
<rect x="517.0" y="290.0" width="8.0" height="30.0" rx="0" fill="#E8D5BF" stroke="#6B4A2B" stroke-width="1.2"/>
<line x1="491.0" y1="320.0" x2="559.0" y2="320.0" stroke="#8A8880" stroke-width="1.2" stroke-linecap="round"/>
<path d="M521 320 L507 338 M521 320 L533 340 M521 320 L521 342" fill="none" stroke="#6B4A2B" stroke-width="1.5" stroke-linecap="round" stroke-linejoin="round"/>
<line x1="537.0" y1="264.0" x2="563.0" y2="264.0" stroke="#3B6D11" stroke-width="1" stroke-linecap="round"/>
<text class="ts" x="565.0" y="264.0" text-anchor="start" dominant-baseline="central" fill="#3B6D11" font-weight="600">feuillage</text>
<line x1="526.0" y1="302.0" x2="563.0" y2="302.0" stroke="#3B6D11" stroke-width="1" stroke-linecap="round"/>
<text class="ts" x="565.0" y="302.0" text-anchor="start" dominant-baseline="central" fill="#3B6D11" font-weight="600">tronc</text>
<line x1="533.0" y1="334.0" x2="563.0" y2="334.0" stroke="#3B6D11" stroke-width="1" stroke-linecap="round"/>
<text class="ts" x="565.0" y="334.0" text-anchor="start" dominant-baseline="central" fill="#3B6D11" font-weight="600">racines</text>
<rect x="485.0" y="246.0" width="150.0" height="100.0" rx="0" fill="none" stroke="#1a1a18" stroke-width="1.2"/>
<rect x="478.0" y="363.0" width="36.0" height="10.0" rx="0" fill="#FFF1B8" stroke="#1a1a18" stroke-width="1.2"/>
<line x1="482.0" y1="363.0" x2="482.0" y2="367.0" stroke="#1a1a18" stroke-width="1" stroke-linecap="round"/>
<line x1="487.0" y1="363.0" x2="487.0" y2="367.0" stroke="#1a1a18" stroke-width="1" stroke-linecap="round"/>
<line x1="492.0" y1="363.0" x2="492.0" y2="367.0" stroke="#1a1a18" stroke-width="1" stroke-linecap="round"/>
<line x1="497.0" y1="363.0" x2="497.0" y2="367.0" stroke="#1a1a18" stroke-width="1" stroke-linecap="round"/>
<line x1="502.0" y1="363.0" x2="502.0" y2="367.0" stroke="#1a1a18" stroke-width="1" stroke-linecap="round"/>
<line x1="507.0" y1="363.0" x2="507.0" y2="367.0" stroke="#1a1a18" stroke-width="1" stroke-linecap="round"/>
<line x1="512.0" y1="363.0" x2="512.0" y2="367.0" stroke="#1a1a18" stroke-width="1" stroke-linecap="round"/>
<text class="t" x="522.0" y="368.0" text-anchor="start" dominant-baseline="central" fill="#1a1a18" font-weight="700">schéma</text>
<text class="t" x="560.0" y="394.0" text-anchor="middle" dominant-baseline="central">un dessin précis, avec</text>
<text class="t" x="560.0" y="412.0" text-anchor="middle" dominant-baseline="central">des mots : il explique</text>
<rect x="500.0" y="428.0" width="120.0" height="20.0" rx="10" fill="#EAF3DE" stroke="#3B6D11" stroke-width="1.2"/>
<text class="ts" x="560.0" y="438.0" text-anchor="middle" dominant-baseline="central" fill="#3B6D11" font-weight="600">pour informer</text>
<text class="ts" x="340" y="470" text-anchor="middle" dominant-baseline="central" font-weight="600"><tspan fill="#185FA5">bleu : image artistique (elle exprime)</tspan><tspan fill="#5F5E5A">  ·  </tspan><tspan fill="#3B6D11">vert : image documentaire ou scientifique (elle informe)</tspan></text>
</svg>
