<svg width="100%" viewBox="0 0 680 372" xmlns="http://www.w3.org/2000/svg"><title>Du produit agricole au produit transformé : quatre exemples</title>
<defs><marker id="fl" viewBox="0 0 10 10" refX="8" refY="5" markerWidth="6" markerHeight="6" orient="auto-start-reverse"><path d="M2 1L8 5L2 9" fill="none" stroke="context-stroke" stroke-width="1.5" stroke-linecap="round" stroke-linejoin="round"/></marker></defs>
<g class="c-green"><text class="th" x="20.0" y="50.0" text-anchor="start" dominant-baseline="central">produit</text></g>
<g class="c-green"><text class="th" x="20.0" y="66.0" text-anchor="start" dominant-baseline="central">agricole</text></g>
<g class="c-coral"><text class="th" x="20.0" y="250.0" text-anchor="start" dominant-baseline="central">produit</text></g>
<g class="c-coral"><text class="th" x="20.0" y="266.0" text-anchor="start" dominant-baseline="central">transformé</text></g>
<rect x="117.0" y="10.0" width="116.0" height="110.0" rx="8" fill="#EAF3DE" stroke="#3B6D11" stroke-width="1"/>
<circle cx="175.0" cy="56.0" r="20" fill="#D8452F" stroke="#8A2020" stroke-width="1.2"/>
<line x1="175.0" y1="36.0" x2="177.0" y2="26.0" stroke="#5a3a22" stroke-width="2" stroke-linecap="round"/>
<ellipse cx="185" cy="29" rx="8" ry="4" fill="#7FB65A" stroke="#3B6D11" stroke-width="1"/>
<g class="c-green"><text class="t" x="175.0" y="96.0" text-anchor="middle" dominant-baseline="central">une pomme</text></g>
<g class="c-green"><text class="ts" x="175.0" y="112.0" text-anchor="middle" dominant-baseline="central">(verger)</text></g>
<line x1="175.0" y1="124.0" x2="175.0" y2="150.0" stroke="#5f5e5a" stroke-width="1.6" stroke-linecap="round"/>
<line x1="175.0" y1="190.0" x2="175.0" y2="206.0" stroke="#5f5e5a" stroke-width="1.6" stroke-linecap="round" marker-end="url(#fl)"/>
<rect x="185.6" y="155.4" width="4.5" height="15.3" rx="0" fill="#F1EFE8" stroke="#5F5E5A" stroke-width="1.5"/>
<polygon points="161.2,186.0 161.2,170.7 171.8,164.4 171.8,170.7 182.2,164.4 182.2,170.7 192.8,164.4 192.8,170.7 192.8,186.0" fill="#F1EFE8" stroke="#5F5E5A" stroke-width="1.5" stroke-linejoin="round"/>
<rect x="164.8" y="176.8" width="5.4" height="4.5" rx="0" fill="#ffffff" stroke="#5F5E5A" stroke-width="1"/>
<rect x="174.3" y="176.8" width="5.4" height="4.5" rx="0" fill="#ffffff" stroke="#5F5E5A" stroke-width="1"/>
<rect x="183.8" y="176.8" width="5.4" height="4.5" rx="0" fill="#ffffff" stroke="#5F5E5A" stroke-width="1"/>
<circle cx="187.8" cy="151.8" r="2.2" fill="#dcdad2" stroke="none" stroke-width="1.5"/>
<circle cx="191.4" cy="148.2" r="2.7" fill="#e6e4dc" stroke="none" stroke-width="1.5"/>
<rect x="117.0" y="210.0" width="116.0" height="100.0" rx="8" fill="#FAECE7" stroke="#C2410C" stroke-width="1"/>
<path d="M155 224 L195 224 L191 270 L159 270 Z" fill="#ffffff" stroke="#8A5A3A" stroke-width="1.5" stroke-linecap="round" stroke-linejoin="round"/>
<rect x="153.0" y="218.0" width="44.0" height="7.0" rx="2" fill="#C98F4A" stroke="#8A5A3A" stroke-width="1.2"/>
<rect x="160.0" y="242.0" width="30.0" height="14.0" rx="0" fill="#C98F4A" stroke="none" stroke-width="0"/>
<text class="ts" x="175" y="249" text-anchor="middle" dominant-baseline="central" fill="#ffffff"></text>
<g class="c-coral"><text class="t" x="175.0" y="292.0" text-anchor="middle" dominant-baseline="central">une compote</text></g>
<rect x="252.0" y="10.0" width="116.0" height="110.0" rx="8" fill="#EAF3DE" stroke="#3B6D11" stroke-width="1"/>
<path d="M294 78 L294 50 L302 38 L302 28 L318 28 L318 38 L326 50 L326 78 Z" fill="#ffffff" stroke="#7a7870" stroke-width="1.5" stroke-linecap="round" stroke-linejoin="round"/>
<rect x="301.0" y="22.0" width="18.0" height="7.0" rx="0" fill="#4A90D9" stroke="#2A6099" stroke-width="1"/>
<text class="ts" x="310.0" y="62.0" text-anchor="middle" dominant-baseline="central">lait</text>
<g class="c-green"><text class="t" x="310.0" y="96.0" text-anchor="middle" dominant-baseline="central">du lait</text></g>
<g class="c-green"><text class="ts" x="310.0" y="112.0" text-anchor="middle" dominant-baseline="central">(élevage)</text></g>
<line x1="310.0" y1="124.0" x2="310.0" y2="150.0" stroke="#5f5e5a" stroke-width="1.6" stroke-linecap="round"/>
<line x1="310.0" y1="190.0" x2="310.0" y2="206.0" stroke="#5f5e5a" stroke-width="1.6" stroke-linecap="round" marker-end="url(#fl)"/>
<rect x="320.6" y="155.4" width="4.5" height="15.3" rx="0" fill="#F1EFE8" stroke="#5F5E5A" stroke-width="1.5"/>
<polygon points="296.2,186.0 296.2,170.7 306.8,164.4 306.8,170.7 317.2,164.4 317.2,170.7 327.8,164.4 327.8,170.7 327.8,186.0" fill="#F1EFE8" stroke="#5F5E5A" stroke-width="1.5" stroke-linejoin="round"/>
<rect x="299.9" y="176.8" width="5.4" height="4.5" rx="0" fill="#ffffff" stroke="#5F5E5A" stroke-width="1"/>
<rect x="309.3" y="176.8" width="5.4" height="4.5" rx="0" fill="#ffffff" stroke="#5F5E5A" stroke-width="1"/>
<rect x="318.8" y="176.8" width="5.4" height="4.5" rx="0" fill="#ffffff" stroke="#5F5E5A" stroke-width="1"/>
<circle cx="322.8" cy="151.8" r="2.2" fill="#dcdad2" stroke="none" stroke-width="1.5"/>
<circle cx="326.4" cy="148.2" r="2.7" fill="#e6e4dc" stroke="none" stroke-width="1.5"/>
<rect x="252.0" y="210.0" width="116.0" height="100.0" rx="8" fill="#FAECE7" stroke="#C2410C" stroke-width="1"/>
<path d="M290 224 L330 224 L326 270 L294 270 Z" fill="#ffffff" stroke="#2A6099" stroke-width="1.5" stroke-linecap="round" stroke-linejoin="round"/>
<rect x="288.0" y="218.0" width="44.0" height="7.0" rx="2" fill="#4A90D9" stroke="#2A6099" stroke-width="1.2"/>
<rect x="295.0" y="242.0" width="30.0" height="14.0" rx="0" fill="#4A90D9" stroke="none" stroke-width="0"/>
<text class="ts" x="310" y="249" text-anchor="middle" dominant-baseline="central" fill="#ffffff"></text>
<g class="c-coral"><text class="t" x="310.0" y="292.0" text-anchor="middle" dominant-baseline="central">un yaourt</text></g>
<rect x="387.0" y="10.0" width="116.0" height="110.0" rx="8" fill="#EAF3DE" stroke="#3B6D11" stroke-width="1"/>
<line x1="445.0" y1="82.0" x2="445.0" y2="30.0" stroke="#B8923A" stroke-width="2" stroke-linecap="round"/>
<ellipse cx="439" cy="36" rx="5" ry="3.2" fill="#E8C35A" stroke="#A8822A" stroke-width="0.8"/>
<ellipse cx="451" cy="36" rx="5" ry="3.2" fill="#E8C35A" stroke="#A8822A" stroke-width="0.8"/>
<ellipse cx="439" cy="45" rx="5" ry="3.2" fill="#E8C35A" stroke="#A8822A" stroke-width="0.8"/>
<ellipse cx="451" cy="45" rx="5" ry="3.2" fill="#E8C35A" stroke="#A8822A" stroke-width="0.8"/>
<ellipse cx="439" cy="54" rx="5" ry="3.2" fill="#E8C35A" stroke="#A8822A" stroke-width="0.8"/>
<ellipse cx="451" cy="54" rx="5" ry="3.2" fill="#E8C35A" stroke="#A8822A" stroke-width="0.8"/>
<ellipse cx="439" cy="63" rx="5" ry="3.2" fill="#E8C35A" stroke="#A8822A" stroke-width="0.8"/>
<ellipse cx="451" cy="63" rx="5" ry="3.2" fill="#E8C35A" stroke="#A8822A" stroke-width="0.8"/>
<ellipse cx="439" cy="72" rx="5" ry="3.2" fill="#E8C35A" stroke="#A8822A" stroke-width="0.8"/>
<ellipse cx="451" cy="72" rx="5" ry="3.2" fill="#E8C35A" stroke="#A8822A" stroke-width="0.8"/>
<g class="c-green"><text class="t" x="445.0" y="96.0" text-anchor="middle" dominant-baseline="central">du blé</text></g>
<g class="c-green"><text class="ts" x="445.0" y="112.0" text-anchor="middle" dominant-baseline="central">(champ)</text></g>
<line x1="445.0" y1="124.0" x2="445.0" y2="150.0" stroke="#5f5e5a" stroke-width="1.6" stroke-linecap="round"/>
<line x1="445.0" y1="190.0" x2="445.0" y2="206.0" stroke="#5f5e5a" stroke-width="1.6" stroke-linecap="round" marker-end="url(#fl)"/>
<rect x="455.6" y="155.4" width="4.5" height="15.3" rx="0" fill="#F1EFE8" stroke="#5F5E5A" stroke-width="1.5"/>
<polygon points="431.2,186.0 431.2,170.7 441.8,164.4 441.8,170.7 452.2,164.4 452.2,170.7 462.8,164.4 462.8,170.7 462.8,186.0" fill="#F1EFE8" stroke="#5F5E5A" stroke-width="1.5" stroke-linejoin="round"/>
<rect x="434.9" y="176.8" width="5.4" height="4.5" rx="0" fill="#ffffff" stroke="#5F5E5A" stroke-width="1"/>
<rect x="444.3" y="176.8" width="5.4" height="4.5" rx="0" fill="#ffffff" stroke="#5F5E5A" stroke-width="1"/>
<rect x="453.8" y="176.8" width="5.4" height="4.5" rx="0" fill="#ffffff" stroke="#5F5E5A" stroke-width="1"/>
<circle cx="457.8" cy="151.8" r="2.2" fill="#dcdad2" stroke="none" stroke-width="1.5"/>
<circle cx="461.4" cy="148.2" r="2.7" fill="#e6e4dc" stroke="none" stroke-width="1.5"/>
<rect x="387.0" y="210.0" width="116.0" height="100.0" rx="8" fill="#FAECE7" stroke="#C2410C" stroke-width="1"/>
<rect x="421.0" y="234.0" width="48.0" height="32.0" rx="6" fill="#E8B86A" stroke="#9A6A1E" stroke-width="1.4"/>
<circle cx="433.0" cy="244.0" r="1.8" fill="#9A6A1E" stroke="none" stroke-width="1.5"/>
<circle cx="433.0" cy="256.0" r="1.8" fill="#9A6A1E" stroke="none" stroke-width="1.5"/>
<circle cx="445.0" cy="244.0" r="1.8" fill="#9A6A1E" stroke="none" stroke-width="1.5"/>
<circle cx="445.0" cy="256.0" r="1.8" fill="#9A6A1E" stroke="none" stroke-width="1.5"/>
<circle cx="457.0" cy="244.0" r="1.8" fill="#9A6A1E" stroke="none" stroke-width="1.5"/>
<circle cx="457.0" cy="256.0" r="1.8" fill="#9A6A1E" stroke="none" stroke-width="1.5"/>
<g class="c-coral"><text class="t" x="445.0" y="292.0" text-anchor="middle" dominant-baseline="central">un biscuit</text></g>
<rect x="522.0" y="10.0" width="116.0" height="110.0" rx="8" fill="#EAF3DE" stroke="#3B6D11" stroke-width="1"/>
<ellipse cx="576.0" cy="56.0" rx="23.4" ry="10.8" fill="#9FB8CF" stroke="#4A6680" stroke-width="1"/>
<polygon points="595.8,56.0 610.2,45.2 610.2,66.8" fill="#9FB8CF" stroke="#4A6680" stroke-width="1" stroke-linejoin="round"/>
<circle cx="561.6" cy="53.3" r="2.3" fill="#1a1a18" stroke="none" stroke-width="1.5"/>
<g class="c-green"><text class="t" x="580.0" y="96.0" text-anchor="middle" dominant-baseline="central">un poisson</text></g>
<g class="c-green"><text class="ts" x="580.0" y="112.0" text-anchor="middle" dominant-baseline="central">(pêche)</text></g>
<line x1="580.0" y1="124.0" x2="580.0" y2="150.0" stroke="#5f5e5a" stroke-width="1.6" stroke-linecap="round"/>
<line x1="580.0" y1="190.0" x2="580.0" y2="206.0" stroke="#5f5e5a" stroke-width="1.6" stroke-linecap="round" marker-end="url(#fl)"/>
<rect x="590.5" y="155.4" width="4.5" height="15.3" rx="0" fill="#F1EFE8" stroke="#5F5E5A" stroke-width="1.5"/>
<polygon points="566.2,186.0 566.2,170.7 576.8,164.4 576.8,170.7 587.2,164.4 587.2,170.7 597.8,164.4 597.8,170.7 597.8,186.0" fill="#F1EFE8" stroke="#5F5E5A" stroke-width="1.5" stroke-linejoin="round"/>
<rect x="569.9" y="176.8" width="5.4" height="4.5" rx="0" fill="#ffffff" stroke="#5F5E5A" stroke-width="1"/>
<rect x="579.3" y="176.8" width="5.4" height="4.5" rx="0" fill="#ffffff" stroke="#5F5E5A" stroke-width="1"/>
<rect x="588.8" y="176.8" width="5.4" height="4.5" rx="0" fill="#ffffff" stroke="#5F5E5A" stroke-width="1"/>
<circle cx="592.8" cy="151.8" r="2.2" fill="#dcdad2" stroke="none" stroke-width="1.5"/>
<circle cx="596.4" cy="148.2" r="2.7" fill="#e6e4dc" stroke="none" stroke-width="1.5"/>
<rect x="522.0" y="210.0" width="116.0" height="100.0" rx="8" fill="#FAECE7" stroke="#C2410C" stroke-width="1"/>
<rect x="554.0" y="234.0" width="14.0" height="30.0" rx="4" fill="#E8973A" stroke="#9A5418" stroke-width="1.2"/>
<rect x="572.0" y="240.0" width="14.0" height="30.0" rx="4" fill="#E8973A" stroke="#9A5418" stroke-width="1.2"/>
<rect x="590.0" y="234.0" width="14.0" height="30.0" rx="4" fill="#E8973A" stroke="#9A5418" stroke-width="1.2"/>
<g class="c-coral"><text class="t" x="580.0" y="292.0" text-anchor="middle" dominant-baseline="central">du poisson pané</text></g>
<text class="t" x="25.0" y="160.0" text-anchor="start" dominant-baseline="central">à l'usine</text>
<text class="th" x="340.0" y="334.0" text-anchor="middle" dominant-baseline="central">Chaque produit transformé est fabriqué à partir d'un ou plusieurs produits agricoles.</text>
<text class="ts" x="340.0" y="356.0" text-anchor="middle" dominant-baseline="central">Une pomme vendue telle quelle reste un produit agricole : elle ne passe pas par l'usine.</text>
</svg>
