<svg width="100%" viewBox="0 0 680 476" xmlns="http://www.w3.org/2000/svg"><title>Sarah redit la consigne en français, avec le geste, pour que Tim comprenne</title>
<defs><marker id="fl" viewBox="0 0 10 10" refX="8" refY="5" markerWidth="6" markerHeight="6" orient="auto-start-reverse"><path d="M2 1L8 5L2 9" fill="none" stroke="context-stroke" stroke-width="1.5" stroke-linecap="round" stroke-linejoin="round"/></marker></defs>
<line x1="58.1" y1="210.8" x2="56.4" y2="272.0" stroke="#1a1a18" stroke-width="3.2" stroke-linecap="round"/>
<line x1="81.9" y1="210.8" x2="83.6" y2="272.0" stroke="#1a1a18" stroke-width="3.2" stroke-linecap="round"/>
<line x1="47.9" y1="159.8" x2="32.6" y2="204.0" stroke="#1a1a18" stroke-width="3" stroke-linecap="round"/>
<line x1="92.1" y1="159.8" x2="107.4" y2="204.0" stroke="#1a1a18" stroke-width="3" stroke-linecap="round"/>
<polygon points="49.6,153.0 90.4,153.0 104.0,221.0 36.0,221.0" fill="#9EC5E8" stroke="#1a1a18" stroke-width="1.2" stroke-linejoin="round"/>
<path d="M43.8 152.0 Q40.2 97.2 70.0 99.1 Q99.8 97.2 96.2 152.0 Z" fill="#6B4226" stroke="none"/>
<circle cx="70.0" cy="125.8" r="23.8" fill="#F6D7B8" stroke="#B98A63" stroke-width="1.2"/>
<path d="M46.2 122.2 Q48.6 98.4 70.0 100.8 Q91.4 98.4 93.8 122.2 Q79.5 112.7 46.2 122.2 Z" fill="#6B4226" stroke="none"/>
<circle cx="61.7" cy="127.0" r="2.142" fill="#1a1a18" stroke="none" stroke-width="1.5"/>
<circle cx="78.3" cy="127.0" r="2.142" fill="#1a1a18" stroke="none" stroke-width="1.5"/>
<path d="M61.7 135.3 Q70.0 142.5 78.3 135.3" fill="none" stroke="#1a1a18" stroke-width="1.6" stroke-linecap="round" stroke-linejoin="round"/>
<text x="70.0" y="294.0" font-size="14" fill="#5f5e5a" font-weight="600" text-anchor="middle" dominant-baseline="central">la maîtresse</text>
<rect x="110.0" y="20.0" width="250.0" height="50.0" rx="12" fill="#ffffff" stroke="#185FA5" stroke-width="1.5"/>
<polygon points="122.0,69.0 126.0,86.0 138.0,69.0" fill="#ffffff" stroke="none" stroke-width="1.5" stroke-linejoin="round"/>
<line x1="126.0" y1="86.0" x2="122.0" y2="69.0" stroke="#185FA5" stroke-width="1.5" stroke-linecap="round"/>
<line x1="126.0" y1="86.0" x2="138.0" y2="69.0" stroke="#185FA5" stroke-width="1.5" stroke-linecap="round"/>
<text x="235.0" y="45.0" font-size="17" fill="#185FA5" font-weight="700" text-anchor="middle" dominant-baseline="central">Open your book at page 12!</text>
<line x1="391.7" y1="229.5" x2="390.6" y2="272.0" stroke="#1a1a18" stroke-width="3.2" stroke-linecap="round"/>
<line x1="408.3" y1="229.5" x2="409.4" y2="272.0" stroke="#1a1a18" stroke-width="3.2" stroke-linecap="round"/>
<line x1="384.7" y1="194.1" x2="374.0" y2="224.8" stroke="#1a1a18" stroke-width="3" stroke-linecap="round"/>
<line x1="415.3" y1="194.1" x2="442.5" y2="187.0" stroke="#1a1a18" stroke-width="3" stroke-linecap="round"/>
<polygon points="385.8,189.4 414.2,189.4 423.6,236.6 376.4,236.6" fill="#D8CCF5" stroke="#1a1a18" stroke-width="1.2" stroke-linejoin="round"/>
<path d="M381.8 188.7 Q379.4 150.7 400.0 152.0 Q420.6 150.7 418.2 188.7 Z" fill="#2B2118" stroke="none"/>
<circle cx="400.0" cy="170.5" r="16.520000000000003" fill="#F6D7B8" stroke="#B98A63" stroke-width="1.2"/>
<path d="M383.5 168.0 Q385.1 151.5 400.0 153.2 Q414.9 151.5 416.5 168.0 Q406.6 161.4 383.5 168.0 Z" fill="#2B2118" stroke="none"/>
<circle cx="394.2" cy="171.3" r="1.6" fill="#1a1a18" stroke="none" stroke-width="1.5"/>
<circle cx="405.8" cy="171.3" r="1.6" fill="#1a1a18" stroke="none" stroke-width="1.5"/>
<path d="M394.2 177.1 Q400.0 182.1 405.8 177.1" fill="none" stroke="#1a1a18" stroke-width="1.6" stroke-linecap="round" stroke-linejoin="round"/>
<text x="400.0" y="294.0" font-size="15" fill="#534AB7" font-weight="700" text-anchor="middle" dominant-baseline="central">Sarah</text>
<rect x="300.0" y="84.0" width="240.0" height="56.0" rx="12" fill="#ffffff" stroke="#534AB7" stroke-width="1.5"/>
<polygon points="384.0,139.0 388.0,156.0 400.0,139.0" fill="#ffffff" stroke="none" stroke-width="1.5" stroke-linejoin="round"/>
<line x1="388.0" y1="156.0" x2="384.0" y2="139.0" stroke="#534AB7" stroke-width="1.5" stroke-linecap="round"/>
<line x1="388.0" y1="156.0" x2="400.0" y2="139.0" stroke="#534AB7" stroke-width="1.5" stroke-linecap="round"/>
<text x="420.0" y="102.0" font-size="16" fill="#534AB7" font-weight="700" text-anchor="middle" dominant-baseline="central">« Ouvre ton livre</text>
<text x="420.0" y="124.0" font-size="16" fill="#534AB7" font-weight="700" text-anchor="middle" dominant-baseline="central">à la page 12 ! »</text>
<polygon points="444.0,182.0 470.0,174.0 470.0,208.0 444.0,216.0" fill="#ffffff" stroke="#1a1a18" stroke-width="1.3" stroke-linejoin="round"/>
<polygon points="470.0,174.0 496.0,182.0 496.0,216.0 470.0,208.0" fill="#ffffff" stroke="#1a1a18" stroke-width="1.3" stroke-linejoin="round"/>
<text x="484.0" y="197.0" font-size="13" fill="#534AB7" font-weight="800" text-anchor="middle" dominant-baseline="central">12</text>
<line x1="601.7" y1="229.5" x2="600.6" y2="272.0" stroke="#1a1a18" stroke-width="3.2" stroke-linecap="round"/>
<line x1="618.3" y1="229.5" x2="619.4" y2="272.0" stroke="#1a1a18" stroke-width="3.2" stroke-linecap="round"/>
<line x1="594.7" y1="194.1" x2="584.0" y2="224.8" stroke="#1a1a18" stroke-width="3" stroke-linecap="round"/>
<line x1="625.3" y1="194.1" x2="636.0" y2="224.8" stroke="#1a1a18" stroke-width="3" stroke-linecap="round"/>
<rect x="593.5" y="188.2" width="33.0" height="42.5" rx="5" fill="#C6E3B0" stroke="#1a1a18" stroke-width="1.2"/>
<circle cx="610.0" cy="170.5" r="16.520000000000003" fill="#F6D7B8" stroke="#B98A63" stroke-width="1.2"/>
<path d="M593.5 168.0 Q595.1 151.5 610.0 153.2 Q624.9 151.5 626.5 168.0 Q616.6 161.4 593.5 168.0 Z" fill="#C0662B" stroke="none"/>
<circle cx="604.2" cy="171.3" r="1.6" fill="#1a1a18" stroke="none" stroke-width="1.5"/>
<circle cx="615.8" cy="171.3" r="1.6" fill="#1a1a18" stroke="none" stroke-width="1.5"/>
<path d="M605.0 178.8 Q608.3 176.8 610.8 179.1 T615.8 178.0" fill="none" stroke="#1a1a18" stroke-width="1.6" stroke-linecap="round" stroke-linejoin="round"/>
<text x="610.0" y="294.0" font-size="15" fill="#3B6D11" font-weight="700" text-anchor="middle" dominant-baseline="central">Tim</text>
<circle cx="640.0" cy="136.0" r="18" fill="#ffffff" stroke="#3B6D11" stroke-width="1.5"/>
<text x="640.0" y="136.0" font-size="22" fill="#3B6D11" font-weight="800" text-anchor="middle" dominant-baseline="central">?</text>
<circle cx="34.0" cy="330.0" r="11" fill="#185FA5" stroke="none" stroke-width="1.5"/>
<text class="ts" x="34.0" y="330.5" text-anchor="middle" dominant-baseline="central" fill="#ffffff" font-weight="700">1</text>
<text x="56.0" y="330.0" font-size="15" fill="#1a1a18" font-weight="500" text-anchor="start" dominant-baseline="central">La maîtresse donne la consigne en anglais.</text>
<circle cx="34.0" cy="366.0" r="11" fill="#3B6D11" stroke="none" stroke-width="1.5"/>
<text class="ts" x="34.0" y="366.5" text-anchor="middle" dominant-baseline="central" fill="#ffffff" font-weight="700">2</text>
<text x="56.0" y="366.0" font-size="15" fill="#1a1a18" font-weight="500" text-anchor="start" dominant-baseline="central">Tim ne comprend pas : il fronce les sourcils.</text>
<circle cx="34.0" cy="402.0" r="11" fill="#534AB7" stroke="none" stroke-width="1.5"/>
<text class="ts" x="34.0" y="402.5" text-anchor="middle" dominant-baseline="central" fill="#ffffff" font-weight="700">3</text>
<text x="56.0" y="402.0" font-size="15" fill="#1a1a18" font-weight="500" text-anchor="start" dominant-baseline="central">Sarah la redit en français, et ouvre son livre à la page 12.</text>
<circle cx="34.0" cy="438.0" r="11" fill="#3B6D11" stroke="none" stroke-width="1.5"/>
<text class="ts" x="34.0" y="438.5" text-anchor="middle" dominant-baseline="central" fill="#ffffff" font-weight="700">4</text>
<text x="56.0" y="438.0" font-size="15" fill="#1a1a18" font-weight="500" text-anchor="start" dominant-baseline="central">Tim : « Ah, d'accord ! » Il a compris grâce aux mots et au geste.</text>
</svg>
