<svg width="100%" viewBox="0 0 680 452" xmlns="http://www.w3.org/2000/svg"><title>Les mots qui annoncent une question, et les petits mots qui disent de qui on parle</title>
<rect x="8.0" y="6.0" width="216.0" height="140.0" rx="12" fill="#FAECE7" stroke="#C2410C" stroke-width="1.5"/>
<text class="tx" x="22.0" y="32.0" text-anchor="start" dominant-baseline="central" fill="#C2410C">Who?</text>
<text class="tl" x="22.0" y="64.0" text-anchor="start" dominant-baseline="central">qui ?</text>
<text class="t" x="116.0" y="124.0" text-anchor="middle" dominant-baseline="central" fill="#712B13" font-weight="700">« Who is it? »</text>
<circle cx="184.0" cy="64.0" r="20" fill="#FCE9D8" stroke="#8a6a55" stroke-width="1.2"/>
<path d="M165.0 57.0 Q184.0 33.0 203.0 57.0 Q184.0 48.0 165.0 57.0 Z" fill="#6b4a2b"/>
<circle cx="176.4" cy="63.0" r="2.0" fill="#1a1a18" stroke="none" stroke-width="1.5"/>
<circle cx="191.6" cy="63.0" r="2.0" fill="#1a1a18" stroke="none" stroke-width="1.5"/>
<path d="M177.0 70.4 Q184.0 78.4 191.0 70.4" fill="none" stroke="#1a1a18" stroke-width="1.3" stroke-linecap="round" stroke-linejoin="round"/>
<text class="tl" x="208.0" y="44.0" text-anchor="middle" dominant-baseline="central" fill="#C2410C">?</text>
<rect x="232.0" y="6.0" width="216.0" height="140.0" rx="12" fill="#FAECE7" stroke="#C2410C" stroke-width="1.5"/>
<text class="tx" x="246.0" y="32.0" text-anchor="start" dominant-baseline="central" fill="#C2410C">What?</text>
<text class="tl" x="246.0" y="64.0" text-anchor="start" dominant-baseline="central">quoi ?</text>
<text class="t" x="340.0" y="124.0" text-anchor="middle" dominant-baseline="central" fill="#712B13" font-weight="700">« What's this? »</text>
<rect x="388.0" y="52.0" width="40.0" height="32.0" rx="0" fill="#F7C6D0" stroke="#993556" stroke-width="1.5"/>
<rect x="385.0" y="44.0" width="46.0" height="10.0" rx="0" fill="#F7C6D0" stroke="#993556" stroke-width="1.5"/>
<line x1="408.0" y1="44.0" x2="408.0" y2="84.0" stroke="#993556" stroke-width="3" stroke-linecap="round"/>
<rect x="456.0" y="6.0" width="216.0" height="140.0" rx="12" fill="#FAECE7" stroke="#C2410C" stroke-width="1.5"/>
<text class="tx" x="470.0" y="32.0" text-anchor="start" dominant-baseline="central" fill="#C2410C">Where?</text>
<text class="tl" x="470.0" y="64.0" text-anchor="start" dominant-baseline="central">où ?</text>
<text class="t" x="564.0" y="124.0" text-anchor="middle" dominant-baseline="central" fill="#712B13" font-weight="700">« Where is Max? »</text>
<rect x="614.0" y="60.0" width="36.0" height="26.0" rx="0" fill="#FCE9D8" stroke="#854F0B" stroke-width="1.5"/>
<polygon points="608.0,60.0 632.0,38.0 656.0,60.0" fill="#E3A07A" stroke="#854F0B" stroke-width="1.5" stroke-linejoin="round"/>
<rect x="627.0" y="72.0" width="10.0" height="14.0" rx="0" fill="#854F0B" stroke="none" stroke-width="0"/>
<rect x="8.0" y="154.0" width="216.0" height="140.0" rx="12" fill="#FAECE7" stroke="#C2410C" stroke-width="1.5"/>
<text class="tx" x="22.0" y="180.0" text-anchor="start" dominant-baseline="central" fill="#C2410C">When?</text>
<text class="tl" x="22.0" y="212.0" text-anchor="start" dominant-baseline="central">quand ?</text>
<text class="t" x="116.0" y="272.0" text-anchor="middle" dominant-baseline="central" fill="#712B13" font-weight="700">« When is your party? »</text>
<circle cx="184.0" cy="212.0" r="22" fill="#ffffff" stroke="#1a1a18" stroke-width="2"/>
<line x1="184.0" y1="212.0" x2="184.0" y2="197.0" stroke="#1a1a18" stroke-width="2.5" stroke-linecap="round"/>
<line x1="184.0" y1="212.0" x2="195.0" y2="212.0" stroke="#1a1a18" stroke-width="2.5" stroke-linecap="round"/>
<circle cx="184.0" cy="212.0" r="2.5" fill="#1a1a18" stroke="none" stroke-width="1.5"/>
<rect x="232.0" y="154.0" width="216.0" height="140.0" rx="12" fill="#FAECE7" stroke="#C2410C" stroke-width="1.5"/>
<text class="tx" x="246.0" y="180.0" text-anchor="start" dominant-baseline="central" fill="#C2410C">How old?</text>
<text class="tl" x="246.0" y="212.0" text-anchor="start" dominant-baseline="central">quel âge ?</text>
<text class="t" x="340.0" y="272.0" text-anchor="middle" dominant-baseline="central" fill="#712B13" font-weight="700">« How old are you? »</text>
<rect x="386.0" y="210.0" width="44.0" height="24.0" rx="3" fill="#F7C6D0" stroke="#993556" stroke-width="1.5"/>
<line x1="396.0" y1="210.0" x2="396.0" y2="196.0" stroke="#185FA5" stroke-width="3" stroke-linecap="round"/>
<circle cx="396.0" cy="192.0" r="3" fill="#F4A300" stroke="none" stroke-width="1.5"/>
<line x1="408.0" y1="210.0" x2="408.0" y2="196.0" stroke="#185FA5" stroke-width="3" stroke-linecap="round"/>
<circle cx="408.0" cy="192.0" r="3" fill="#F4A300" stroke="none" stroke-width="1.5"/>
<line x1="420.0" y1="210.0" x2="420.0" y2="196.0" stroke="#185FA5" stroke-width="3" stroke-linecap="round"/>
<circle cx="420.0" cy="192.0" r="3" fill="#F4A300" stroke="none" stroke-width="1.5"/>
<rect x="456.0" y="154.0" width="216.0" height="140.0" rx="12" fill="#FAECE7" stroke="#C2410C" stroke-width="1.5"/>
<text class="tx" x="470.0" y="180.0" text-anchor="start" dominant-baseline="central" fill="#C2410C">How many?</text>
<text class="tl" x="470.0" y="212.0" text-anchor="start" dominant-baseline="central">combien ?</text>
<text class="t" x="564.0" y="272.0" text-anchor="middle" dominant-baseline="central" fill="#712B13" font-weight="700">« How many cats? »</text>
<circle cx="602.0" cy="242.0" r="9" fill="#E6F1FB" stroke="#185FA5" stroke-width="1.5"/>
<circle cx="622.0" cy="242.0" r="9" fill="#E6F1FB" stroke="#185FA5" stroke-width="1.5"/>
<circle cx="642.0" cy="242.0" r="9" fill="#E6F1FB" stroke="#185FA5" stroke-width="1.5"/>
<rect x="8.0" y="308.0" width="664.0" height="136.0" rx="12" fill="#ffffff" stroke="#444441" stroke-width="1.2"/>
<text class="tl" x="340.0" y="328.0" text-anchor="middle" dominant-baseline="central">De qui on parle ?</text>
<circle cx="50.0" cy="380.0" r="20" fill="#FCE9D8" stroke="#8a6a55" stroke-width="1.2"/>
<path d="M31.0 373.0 Q50.0 349.0 69.0 373.0 Q50.0 364.0 31.0 373.0 Z" fill="#1a1a18"/>
<circle cx="42.4" cy="379.0" r="2.0" fill="#1a1a18" stroke="none" stroke-width="1.5"/>
<circle cx="57.6" cy="379.0" r="2.0" fill="#1a1a18" stroke="none" stroke-width="1.5"/>
<path d="M43.0 386.4 Q50.0 394.4 57.0 386.4" fill="none" stroke="#1a1a18" stroke-width="1.3" stroke-linecap="round" stroke-linejoin="round"/>
<text class="tl" x="82.0" y="366.0" text-anchor="start" dominant-baseline="central" fill="#185FA5">he = il</text>
<text class="t" x="82.0" y="394.0" text-anchor="start" dominant-baseline="central" fill="#185FA5" font-weight="700">« He is 9. »</text>
<text class="t" x="82.0" y="414.0" text-anchor="start" dominant-baseline="central" fill="#5f5e5a">Il a 9 ans.</text>
<path d="M247.0 398.0 Q246.0 355.0 270.0 356.0 Q294.0 355.0 293.0 398.0 Z" fill="#a0522d" stroke="none"/>
<circle cx="270.0" cy="380.0" r="20" fill="#FCE9D8" stroke="#8a6a55" stroke-width="1.2"/>
<path d="M251.0 374.0 Q270.0 350.0 289.0 374.0 Q270.0 365.0 251.0 374.0 Z" fill="#a0522d"/>
<circle cx="262.4" cy="379.0" r="2.0" fill="#1a1a18" stroke="none" stroke-width="1.5"/>
<circle cx="277.6" cy="379.0" r="2.0" fill="#1a1a18" stroke="none" stroke-width="1.5"/>
<path d="M263.0 386.4 Q270.0 394.4 277.0 386.4" fill="none" stroke="#1a1a18" stroke-width="1.3" stroke-linecap="round" stroke-linejoin="round"/>
<text class="tl" x="302.0" y="366.0" text-anchor="start" dominant-baseline="central" fill="#534AB7">she = elle</text>
<text class="t" x="302.0" y="394.0" text-anchor="start" dominant-baseline="central" fill="#534AB7" font-weight="700">« She is 10. »</text>
<text class="t" x="302.0" y="414.0" text-anchor="start" dominant-baseline="central" fill="#5f5e5a">Elle a 10 ans.</text>
<line x1="468.0" y1="352.0" x2="468.0" y2="430.0" stroke="#e3e1da" stroke-width="1.5" stroke-linecap="round"/>
<text class="tl" x="486.0" y="366.0" text-anchor="start" dominant-baseline="central" fill="#3B6D11">my = mon, ma</text>
<text class="tl" x="486.0" y="398.0" text-anchor="start" dominant-baseline="central" fill="#3B6D11">your = ton, ta</text>
<text class="t" x="486.0" y="424.0" text-anchor="start" dominant-baseline="central" fill="#5f5e5a">my dog : mon chien</text>
</svg>
