<svg width="100%" viewBox="0 0 680 450" xmlns="http://www.w3.org/2000/svg"><title>La devinette modèle, puis celle de Chloé, avec les indices vérifiés</title>
<rect x="14.0" y="14.0" width="318.0" height="132.0" rx="10" fill="#E6F1FB" stroke="#185FA5" stroke-width="1.5"/>
<text x="30.0" y="36.0" font-size="16" fill="#185FA5" font-weight="700" text-anchor="start" dominant-baseline="central">Le modèle</text>
<text x="30.0" y="66.0" font-size="19" fill="#1a1a18" font-weight="500" text-anchor="start" dominant-baseline="central"><tspan fill="#185FA5" font-weight="700">He is </tspan><tspan fill="#1a1a18" font-weight="700">a boy</tspan><tspan fill="#185FA5" font-weight="700">.</tspan></text>
<text x="30.0" y="94.0" font-size="19" fill="#1a1a18" font-weight="500" text-anchor="start" dominant-baseline="central"><tspan fill="#185FA5" font-weight="700">He has got </tspan><tspan fill="#1a1a18" font-weight="700">red hair</tspan><tspan fill="#185FA5" font-weight="700">.</tspan></text>
<text x="30.0" y="122.0" font-size="19" fill="#1a1a18" font-weight="500" text-anchor="start" dominant-baseline="central"><tspan fill="#185FA5" font-weight="700">Who is it?</tspan></text>
<rect x="14.0" y="162.0" width="318.0" height="214.0" rx="10" fill="#EAF3DE" stroke="#3B6D11" stroke-width="1.5"/>
<text x="30.0" y="184.0" font-size="16" fill="#3B6D11" font-weight="700" text-anchor="start" dominant-baseline="central">La devinette de Chloé</text>
<text x="30.0" y="216.0" font-size="19" fill="#1a1a18" font-weight="500" text-anchor="start" dominant-baseline="central"><tspan fill="#3B6D11" font-weight="700">She</tspan><tspan fill="#185FA5" font-weight="700"> is </tspan><tspan fill="#3B6D11" font-weight="700">a girl</tspan><tspan fill="#185FA5" font-weight="700">.</tspan></text>
<text x="30.0" y="246.0" font-size="19" fill="#1a1a18" font-weight="500" text-anchor="start" dominant-baseline="central"><tspan fill="#3B6D11" font-weight="700">She</tspan><tspan fill="#3B6D11" font-weight="700"> wears </tspan><tspan fill="#3B6D11" font-weight="700">a blue jumper</tspan><tspan fill="#185FA5" font-weight="700">.</tspan></text>
<text x="30.0" y="276.0" font-size="19" fill="#1a1a18" font-weight="500" text-anchor="start" dominant-baseline="central"><tspan fill="#3B6D11" font-weight="700">She</tspan><tspan fill="#185FA5" font-weight="700"> has got </tspan><tspan fill="#3B6D11" font-weight="700">black hair</tspan><tspan fill="#185FA5" font-weight="700">.</tspan></text>
<text x="30.0" y="306.0" font-size="19" fill="#1a1a18" font-weight="500" text-anchor="start" dominant-baseline="central"><tspan fill="#185FA5" font-weight="700">Who is it?</tspan></text>
<text x="30.0" y="338.0" font-size="14" fill="#5f5e5a" font-weight="500" text-anchor="start" dominant-baseline="central">C'est une fille. Elle porte un pull bleu.</text>
<text x="30.0" y="356.0" font-size="14" fill="#5f5e5a" font-weight="500" text-anchor="start" dominant-baseline="central">Elle a les cheveux noirs. Qui est-ce ?</text>
<line x1="467.7" y1="107.5" x2="466.6" y2="150.0" stroke="#1a1a18" stroke-width="3.2" stroke-linecap="round"/>
<line x1="484.3" y1="107.5" x2="485.4" y2="150.0" stroke="#1a1a18" stroke-width="3.2" stroke-linecap="round"/>
<line x1="460.7" y1="72.1" x2="450.0" y2="102.8" stroke="#1a1a18" stroke-width="3" stroke-linecap="round"/>
<line x1="491.3" y1="72.1" x2="502.0" y2="102.8" stroke="#1a1a18" stroke-width="3" stroke-linecap="round"/>
<rect x="459.5" y="66.2" width="33.0" height="42.5" rx="5" fill="#8FC36B" stroke="#1a1a18" stroke-width="1.2"/>
<circle cx="476.0" cy="48.5" r="16.520000000000003" fill="#F6D7B8" stroke="#B98A63" stroke-width="1.2"/>
<path d="M459.5 46.0 Q461.1 29.5 476.0 31.2 Q490.9 29.5 492.5 46.0 Q482.6 39.4 459.5 46.0 Z" fill="#C0662B" stroke="none"/>
<circle cx="470.2" cy="49.3" r="1.6" fill="#1a1a18" stroke="none" stroke-width="1.5"/>
<circle cx="481.8" cy="49.3" r="1.6" fill="#1a1a18" stroke="none" stroke-width="1.5"/>
<path d="M470.2 55.1 Q476.0 60.1 481.8 55.1" fill="none" stroke="#1a1a18" stroke-width="1.6" stroke-linecap="round" stroke-linejoin="round"/>
<text x="476.0" y="172.0" font-size="17" fill="#1a1a18" font-weight="700" text-anchor="middle" dominant-baseline="central">Tom</text>
<line x1="547.7" y1="107.5" x2="546.6" y2="150.0" stroke="#1a1a18" stroke-width="3.2" stroke-linecap="round"/>
<line x1="564.3" y1="107.5" x2="565.4" y2="150.0" stroke="#1a1a18" stroke-width="3.2" stroke-linecap="round"/>
<line x1="540.7" y1="72.1" x2="530.0" y2="102.8" stroke="#1a1a18" stroke-width="3" stroke-linecap="round"/>
<line x1="571.3" y1="72.1" x2="582.0" y2="102.8" stroke="#1a1a18" stroke-width="3" stroke-linecap="round"/>
<rect x="539.5" y="66.2" width="33.0" height="42.5" rx="5" fill="#6FA8DC" stroke="#1a1a18" stroke-width="1.2"/>
<circle cx="556.0" cy="48.5" r="16.520000000000003" fill="#F6D7B8" stroke="#B98A63" stroke-width="1.2"/>
<path d="M539.5 46.0 Q541.1 29.5 556.0 31.2 Q570.9 29.5 572.5 46.0 Q562.6 39.4 539.5 46.0 Z" fill="#E3C16F" stroke="none"/>
<circle cx="550.2" cy="49.3" r="1.6" fill="#1a1a18" stroke="none" stroke-width="1.5"/>
<circle cx="561.8" cy="49.3" r="1.6" fill="#1a1a18" stroke="none" stroke-width="1.5"/>
<path d="M550.2 55.1 Q556.0 60.1 561.8 55.1" fill="none" stroke="#1a1a18" stroke-width="1.6" stroke-linecap="round" stroke-linejoin="round"/>
<path d="M537.8 66.7 Q535.4 28.7 556.0 30.0 Q576.6 28.7 574.2 66.7 Z" fill="#E3C16F" stroke="none"/>
<circle cx="556.0" cy="48.5" r="16.520000000000003" fill="#F6D7B8" stroke="#B98A63" stroke-width="1.2"/>
<path d="M539.5 46.0 Q541.1 29.5 556.0 31.2 Q570.9 29.5 572.5 46.0 Q562.6 39.4 539.5 46.0 Z" fill="#E3C16F" stroke="none"/>
<circle cx="550.2" cy="49.3" r="1.6" fill="#1a1a18" stroke="none" stroke-width="1.5"/>
<circle cx="561.8" cy="49.3" r="1.6" fill="#1a1a18" stroke="none" stroke-width="1.5"/>
<path d="M550.2 55.1 Q556.0 60.1 561.8 55.1" fill="none" stroke="#1a1a18" stroke-width="1.6" stroke-linecap="round" stroke-linejoin="round"/>
<text x="556.0" y="172.0" font-size="17" fill="#1a1a18" font-weight="700" text-anchor="middle" dominant-baseline="central">Lucie</text>
<line x1="627.7" y1="107.5" x2="626.6" y2="150.0" stroke="#1a1a18" stroke-width="3.2" stroke-linecap="round"/>
<line x1="644.3" y1="107.5" x2="645.4" y2="150.0" stroke="#1a1a18" stroke-width="3.2" stroke-linecap="round"/>
<line x1="620.7" y1="72.1" x2="610.0" y2="102.8" stroke="#1a1a18" stroke-width="3" stroke-linecap="round"/>
<line x1="651.3" y1="72.1" x2="662.0" y2="102.8" stroke="#1a1a18" stroke-width="3" stroke-linecap="round"/>
<rect x="619.5" y="66.2" width="33.0" height="42.5" rx="5" fill="#6FA8DC" stroke="#1a1a18" stroke-width="1.2"/>
<circle cx="636.0" cy="48.5" r="16.520000000000003" fill="#F6D7B8" stroke="#B98A63" stroke-width="1.2"/>
<path d="M619.5 46.0 Q621.1 29.5 636.0 31.2 Q650.9 29.5 652.5 46.0 Q642.6 39.4 619.5 46.0 Z" fill="#2B2118" stroke="none"/>
<circle cx="630.2" cy="49.3" r="1.6" fill="#1a1a18" stroke="none" stroke-width="1.5"/>
<circle cx="641.8" cy="49.3" r="1.6" fill="#1a1a18" stroke="none" stroke-width="1.5"/>
<path d="M630.2 55.1 Q636.0 60.1 641.8 55.1" fill="none" stroke="#1a1a18" stroke-width="1.6" stroke-linecap="round" stroke-linejoin="round"/>
<path d="M617.8 66.7 Q615.4 28.7 636.0 30.0 Q656.6 28.7 654.2 66.7 Z" fill="#2B2118" stroke="none"/>
<circle cx="636.0" cy="48.5" r="16.520000000000003" fill="#F6D7B8" stroke="#B98A63" stroke-width="1.2"/>
<path d="M619.5 46.0 Q621.1 29.5 636.0 31.2 Q650.9 29.5 652.5 46.0 Q642.6 39.4 619.5 46.0 Z" fill="#2B2118" stroke="none"/>
<circle cx="630.2" cy="49.3" r="1.6" fill="#1a1a18" stroke="none" stroke-width="1.5"/>
<circle cx="641.8" cy="49.3" r="1.6" fill="#1a1a18" stroke="none" stroke-width="1.5"/>
<path d="M630.2 55.1 Q636.0 60.1 641.8 55.1" fill="none" stroke="#1a1a18" stroke-width="1.6" stroke-linecap="round" stroke-linejoin="round"/>
<text x="636.0" y="172.0" font-size="17" fill="#1a1a18" font-weight="700" text-anchor="middle" dominant-baseline="central">Maya</text>
<rect x="346.0" y="192.0" width="320.0" height="40.0" rx="6" fill="#F1EFE8" stroke="none" stroke-width="0"/>
<text x="354.0" y="212.0" font-size="15" fill="#3B6D11" font-weight="700" text-anchor="start" dominant-baseline="central">a girl</text>
<path d="M469 205 L483 219 M483 205 L469 219" fill="none" stroke="#C2410C" stroke-width="3" stroke-linecap="round" stroke-linejoin="round"/>
<path d="M548 212 L554 219 L565 204" fill="none" stroke="#3B6D11" stroke-width="3.2" stroke-linecap="round" stroke-linejoin="round"/>
<path d="M628 212 L634 219 L645 204" fill="none" stroke="#3B6D11" stroke-width="3.2" stroke-linecap="round" stroke-linejoin="round"/>
<rect x="346.0" y="242.0" width="320.0" height="40.0" rx="6" fill="#ffffff" stroke="none" stroke-width="0"/>
<text x="354.0" y="262.0" font-size="15" fill="#3B6D11" font-weight="700" text-anchor="start" dominant-baseline="central">blue jumper</text>
<path d="M469 255 L483 269 M483 255 L469 269" fill="none" stroke="#C2410C" stroke-width="3" stroke-linecap="round" stroke-linejoin="round"/>
<path d="M548 262 L554 269 L565 254" fill="none" stroke="#3B6D11" stroke-width="3.2" stroke-linecap="round" stroke-linejoin="round"/>
<path d="M628 262 L634 269 L645 254" fill="none" stroke="#3B6D11" stroke-width="3.2" stroke-linecap="round" stroke-linejoin="round"/>
<rect x="346.0" y="292.0" width="320.0" height="40.0" rx="6" fill="#F1EFE8" stroke="none" stroke-width="0"/>
<text x="354.0" y="312.0" font-size="15" fill="#3B6D11" font-weight="700" text-anchor="start" dominant-baseline="central">black hair</text>
<path d="M469 305 L483 319 M483 305 L469 319" fill="none" stroke="#C2410C" stroke-width="3" stroke-linecap="round" stroke-linejoin="round"/>
<path d="M549 305 L563 319 M563 305 L549 319" fill="none" stroke="#C2410C" stroke-width="3" stroke-linecap="round" stroke-linejoin="round"/>
<path d="M628 312 L634 319 L645 304" fill="none" stroke="#3B6D11" stroke-width="3.2" stroke-linecap="round" stroke-linejoin="round"/>
<rect x="560.0" y="346.0" width="106.0" height="40.0" rx="20" fill="#3B6D11" stroke="#3B6D11" stroke-width="1"/>
<text x="613.0" y="366.0" font-size="17" fill="#ffffff" font-weight="700" text-anchor="middle" dominant-baseline="central">It's Maya!</text>
<text x="548.0" y="366.0" font-size="16" fill="#1a1a18" font-weight="700" text-anchor="end" dominant-baseline="central">Réponse :</text>
<text x="340.0" y="412.0" font-size="15" fill="#5f5e5a" font-weight="500" text-anchor="middle" dominant-baseline="central">Bleu : les mots gardés. Noir : les mots à remplacer. Vert : ce que Chloé a mis.</text>
<text x="340.0" y="436.0" font-size="15" fill="#5f5e5a" font-weight="500" text-anchor="middle" dominant-baseline="central">Chaque indice élimine quelqu'un : ✓ oui,  ✗ non.</text>
</svg>
