<svg width="100%" viewBox="0 0 680 476" xmlns="http://www.w3.org/2000/svg">
<defs><marker id="fl" viewBox="0 0 10 10" refX="8" refY="5" markerWidth="6" markerHeight="6" orient="auto-start-reverse"><path d="M2 1L8 5L2 9" fill="none" stroke="#5f5e5a" stroke-width="1.5" stroke-linecap="round" stroke-linejoin="round"/></marker></defs>

<g class="node c-gray"><rect x="60" y="10" width="120" height="30" rx="15" stroke-width="0.5"/>
<text class="th" x="120" y="25" text-anchor="middle" dominant-baseline="central">Début</text></g>
<g class="node c-gray"><rect x="10" y="56" width="220" height="36" rx="6" stroke-width="0.5"/>
<text class="t" x="120" y="74" text-anchor="middle" dominant-baseline="central">Symptôme : pas de lumière</text></g>

<polygon points="120,110 220,150 120,190 20,150" fill="#E6F1FB" stroke="#185FA5" stroke-width="1"/>
<text class="t" x="120" y="142" text-anchor="middle" dominant-baseline="central">Lampe branchée,</text>
<text class="t" x="120" y="160" text-anchor="middle" dominant-baseline="central">prise qui marche ?</text>

<polygon points="120,214 220,254 120,294 20,254" fill="#E6F1FB" stroke="#185FA5" stroke-width="1"/>
<text class="t" x="120" y="246" text-anchor="middle" dominant-baseline="central">Ampoule</text>
<text class="t" x="120" y="264" text-anchor="middle" dominant-baseline="central">en bon état ?</text>

<polygon points="120,318 220,358 120,398 20,358" fill="#E6F1FB" stroke="#185FA5" stroke-width="1"/>
<text class="t" x="120" y="350" text-anchor="middle" dominant-baseline="central">Interrupteur</text>
<text class="t" x="120" y="368" text-anchor="middle" dominant-baseline="central">en bon état ?</text>

<g class="node c-coral"><rect x="20" y="424" width="200" height="44" rx="6" stroke-width="0.5"/>
<text class="t" x="120" y="438" text-anchor="middle" dominant-baseline="central">Câble ou douille abîmé :</text>
<text class="ts" x="120" y="456" text-anchor="middle" dominant-baseline="central">réparation plus poussée</text></g>

<line x1="120" y1="42" x2="120" y2="52" class="arr" marker-end="url(#fl)"/>
<line x1="120" y1="94" x2="120" y2="106" class="arr" marker-end="url(#fl)"/>
<line x1="120" y1="192" x2="120" y2="210" class="arr" marker-end="url(#fl)"/>
<line x1="120" y1="296" x2="120" y2="314" class="arr" marker-end="url(#fl)"/>
<line x1="120" y1="400" x2="120" y2="420" class="arr" marker-end="url(#fl)"/>
<text class="ts" x="128" y="204">oui</text>
<text class="ts" x="128" y="308">oui</text>
<text class="ts" x="128" y="413">oui</text>

<line x1="222" y1="150" x2="266" y2="150" class="arr" marker-end="url(#fl)"/>
<line x1="222" y1="254" x2="266" y2="254" class="arr" marker-end="url(#fl)"/>
<line x1="222" y1="358" x2="266" y2="358" class="arr" marker-end="url(#fl)"/>
<text class="ts" x="232" y="142">non</text>
<text class="ts" x="232" y="246">non</text>
<text class="ts" x="232" y="350">non</text>

<g class="node c-green"><rect x="270" y="128" width="220" height="44" rx="6" stroke-width="0.5"/>
<text class="t" x="380" y="150" text-anchor="middle" dominant-baseline="central">Brancher, changer de prise</text></g>
<g class="node c-green"><rect x="270" y="232" width="220" height="44" rx="6" stroke-width="0.5"/>
<text class="t" x="380" y="254" text-anchor="middle" dominant-baseline="central">Remplacer l'ampoule</text></g>
<g class="node c-green"><rect x="270" y="336" width="220" height="44" rx="6" stroke-width="0.5"/>
<text class="t" x="380" y="358" text-anchor="middle" dominant-baseline="central">Changer l'interrupteur</text></g>

<line x1="492" y1="150" x2="516" y2="150" class="arr" marker-end="url(#fl)"/>
<line x1="492" y1="254" x2="516" y2="254" class="arr" marker-end="url(#fl)"/>
<line x1="492" y1="358" x2="516" y2="358" class="arr" marker-end="url(#fl)"/>
<path d="M 222 446 L 590 446 L 590 406" fill="none" stroke="#5f5e5a" stroke-width="1.5" marker-end="url(#fl)"/>

<g class="node c-gray"><rect x="520" y="110" width="140" height="292" rx="10" stroke-width="0.5"/>
<text class="th" x="590" y="140" text-anchor="middle" dominant-baseline="central">Tester :</text>
<text class="t" x="590" y="162" text-anchor="middle" dominant-baseline="central">la lampe</text>
<text class="t" x="590" y="180" text-anchor="middle" dominant-baseline="central">s'allume ?</text>
<text class="th" x="590" y="226" text-anchor="middle" dominant-baseline="central">Fin :</text>
<text class="t" x="590" y="248" text-anchor="middle" dominant-baseline="central">objet réparé</text>
<text class="ts" x="590" y="312" text-anchor="middle" dominant-baseline="central">Sécurité :</text>
<text class="ts" x="590" y="330" text-anchor="middle" dominant-baseline="central">débrancher</text>
<text class="ts" x="590" y="348" text-anchor="middle" dominant-baseline="central">avant d'ouvrir</text>
<text class="ts" x="590" y="366" text-anchor="middle" dominant-baseline="central">l'objet</text></g>

<text class="ts" x="280" y="40">bleu : test (hypothèse)</text>
<text class="ts" x="280" y="58">vert : action de réparation</text>
<text class="ts" x="280" y="76">de la cause la plus simple</text>
<text class="ts" x="280" y="94">à la plus compliquée</text>
</svg>
