<svg width="100%" viewBox="0 0 680 340" xmlns="http://www.w3.org/2000/svg">
<defs><marker id="arrow" viewBox="0 0 10 10" refX="8" refY="5" markerWidth="6" markerHeight="6" orient="auto-start-reverse">
<path d="M2 1L8 5L2 9" fill="none" stroke="context-stroke" stroke-width="1.5" stroke-linecap="round" stroke-linejoin="round"/></marker></defs>
<g class="node c-gray"><rect x="190" y="20" width="300" height="56" rx="8" stroke-width="0.5"/>
<text class="th" x="340" y="39" text-anchor="middle" dominant-baseline="central">Réciter un texte</text>
<text class="ts" x="340" y="57" text-anchor="middle" dominant-baseline="central">voix, corps, sens</text></g>
<line x1="260" y1="76" x2="90" y2="120" class="arr" marker-end="url(#arrow)"/>
<line x1="310" y1="76" x2="260" y2="120" class="arr" marker-end="url(#arrow)"/>
<line x1="370" y1="76" x2="420" y2="120" class="arr" marker-end="url(#arrow)"/>
<line x1="420" y1="76" x2="590" y2="120" class="arr" marker-end="url(#arrow)"/>
<g class="node c-blue"><rect x="10" y="120" width="160" height="66" rx="8" stroke-width="0.5"/>
<text class="th" x="90" y="140" text-anchor="middle" dominant-baseline="central">Voix</text>
<text class="ts" x="90" y="160" text-anchor="middle" dominant-baseline="central">volume, débit, ton</text></g>
<g class="node c-teal"><rect x="180" y="120" width="160" height="66" rx="8" stroke-width="0.5"/>
<text class="th" x="260" y="140" text-anchor="middle" dominant-baseline="central">Respiration</text>
<text class="ts" x="260" y="160" text-anchor="middle" dominant-baseline="central">pauses, souffle</text></g>
<g class="node c-coral"><rect x="350" y="120" width="160" height="66" rx="8" stroke-width="0.5"/>
<text class="th" x="430" y="140" text-anchor="middle" dominant-baseline="central">Regard</text>
<text class="ts" x="430" y="160" text-anchor="middle" dominant-baseline="central">vers le public</text></g>
<g class="node c-green"><rect x="520" y="120" width="150" height="66" rx="8" stroke-width="0.5"/>
<text class="th" x="595" y="140" text-anchor="middle" dominant-baseline="central">Gestuelle</text>
<text class="ts" x="595" y="160" text-anchor="middle" dominant-baseline="central">corps, mouvement</text></g>
<g class="node c-gray"><rect x="90" y="230" width="500" height="50" rx="8" stroke-width="0.5"/>
<text class="t" x="340" y="255" text-anchor="middle" dominant-baseline="central">Comprendre avant de dire</text></g>
</svg>
