<svg width="100%" viewBox="0 0 680 450" xmlns="http://www.w3.org/2000/svg"><title>Merveilleux ou étrange : le personnage accepte la magie, ou il a peur</title>
<defs><marker id="fl" viewBox="0 0 10 10" refX="8" refY="5" markerWidth="6" markerHeight="6" orient="auto-start-reverse"><path d="M2 1L8 5L2 9" fill="none" stroke="context-stroke" stroke-width="1.5" stroke-linecap="round" stroke-linejoin="round"/></marker></defs>
<rect x="8.0" y="8.0" width="322.0" height="434.0" rx="12" fill="#EEEDFE" stroke="#534AB7" stroke-width="1.5"/>
<rect x="350.0" y="8.0" width="322.0" height="434.0" rx="12" fill="#EDEBE4" stroke="#5F5E5A" stroke-width="1.5"/>
<text class="tl" x="169.0" y="34.0" text-anchor="middle" dominant-baseline="central" fill="#534AB7">LE MERVEILLEUX</text>
<text class="tl" x="511.0" y="34.0" text-anchor="middle" dominant-baseline="central" fill="#C2410C">L'ÉTRANGE</text>
<ellipse cx="48.6" cy="130.0" rx="17.6" ry="24.200000000000003" fill="#F4A460" stroke="#B8651B" stroke-width="1.4"/>
<ellipse cx="79.4" cy="130.0" rx="17.6" ry="24.200000000000003" fill="#F4A460" stroke="#B8651B" stroke-width="1.4"/>
<ellipse cx="64.0" cy="130.0" rx="19.8" ry="24.200000000000003" fill="#F4A460" stroke="#B8651B" stroke-width="1.4"/>
<rect x="60.7" y="97.0" width="6.6" height="9.9" rx="0" fill="#3B6D11" stroke="#3B6D11" stroke-width="1"/>
<line x1="104.0" y1="130.0" x2="184.0" y2="130.0" stroke="#534AB7" stroke-width="2.5" stroke-linecap="round" marker-end="url(#fl)"/>
<polygon points="144.0,102.0 141.9,107.1 136.4,107.5 140.6,111.1 139.3,116.5 144.0,113.6 148.7,116.5 147.4,111.1 151.6,107.5 146.1,107.1" fill="#F5C518" stroke="#854F0B" stroke-width="1" stroke-linejoin="round"/>
<path d="M205 138 Q200 88 250 86 Q300 88 295 138 Z" fill="#F4A460" stroke="#B8651B" stroke-width="1.6" stroke-linecap="round" stroke-linejoin="round"/>
<rect x="236.0" y="102.0" width="28.0" height="22.0" rx="4" fill="#FFF6D6" stroke="#854F0B" stroke-width="1.2"/>
<polygon points="250.0,71.0 248.1,75.5 243.3,75.8 247.0,79.0 245.9,83.7 250.0,81.2 254.1,83.7 253.0,79.0 256.7,75.8 251.9,75.5" fill="#F5C518" stroke="#854F0B" stroke-width="1" stroke-linejoin="round"/>
<circle cx="220.0" cy="144.0" r="13" fill="#ffffff" stroke="#854F0B" stroke-width="2.5"/>
<line x1="211.0" y1="144.0" x2="229.0" y2="144.0" stroke="#854F0B" stroke-width="1.5" stroke-linecap="round"/>
<line x1="220.0" y1="135.0" x2="220.0" y2="153.0" stroke="#854F0B" stroke-width="1.5" stroke-linecap="round"/>
<circle cx="280.0" cy="144.0" r="13" fill="#ffffff" stroke="#854F0B" stroke-width="2.5"/>
<line x1="271.0" y1="144.0" x2="289.0" y2="144.0" stroke="#854F0B" stroke-width="1.5" stroke-linecap="round"/>
<line x1="280.0" y1="135.0" x2="280.0" y2="153.0" stroke="#854F0B" stroke-width="1.5" stroke-linecap="round"/>
<text class="t" x="64.0" y="172.0" text-anchor="middle" dominant-baseline="central" fill="#534AB7">une citrouille</text>
<text class="t" x="250.0" y="172.0" text-anchor="middle" dominant-baseline="central" fill="#534AB7">un carrosse</text>
<line x1="80.0" y1="266.6" x2="71.2" y2="300.0" stroke="#534AB7" stroke-width="2.933333333333333" stroke-linecap="round"/>
<line x1="80.0" y1="266.6" x2="88.8" y2="300.0" stroke="#534AB7" stroke-width="2.933333333333333" stroke-linecap="round"/>
<polygon points="73.0,238.6 87.0,238.6 97.6,273.6 62.4,273.6" fill="#D9D2F7" stroke="#534AB7" stroke-width="1.2" stroke-linejoin="round"/>
<line x1="70.3" y1="244.6" x2="60.6" y2="263.0" stroke="#534AB7" stroke-width="2.933333333333333" stroke-linecap="round"/>
<line x1="89.7" y1="244.6" x2="99.4" y2="263.0" stroke="#534AB7" stroke-width="2.933333333333333" stroke-linecap="round"/>
<circle cx="80.0" cy="224.3" r="12.32" fill="#F6D7B8" stroke="#9A6B45" stroke-width="1.2"/>
<path d="M67.7 224.3 A12.3 12.3 0 0 1 92.3 224.3 Z" fill="#E0B24A" stroke="#E0B24A" stroke-width="1" stroke-linecap="round" stroke-linejoin="round"/>
<circle cx="75.7" cy="223.8" r="1.1088" fill="#1a1a18" stroke="none" stroke-width="1.5"/>
<circle cx="84.3" cy="223.8" r="1.1088" fill="#1a1a18" stroke="none" stroke-width="1.5"/>
<path d="M75.1 229.0 Q80.0 233.9 84.9 229.0" fill="none" stroke="#1a1a18" stroke-width="1.4" stroke-linecap="round" stroke-linejoin="round"/>
<text class="th" x="80.0" y="318.0" text-anchor="middle" dominant-baseline="central" fill="#534AB7">Cendrillon</text>
<line x1="250.0" y1="266.6" x2="241.2" y2="300.0" stroke="#534AB7" stroke-width="2.933333333333333" stroke-linecap="round"/>
<line x1="250.0" y1="266.6" x2="258.8" y2="300.0" stroke="#534AB7" stroke-width="2.933333333333333" stroke-linecap="round"/>
<polygon points="243.0,238.6 257.0,238.6 267.6,273.6 232.4,273.6" fill="#F2DDF5" stroke="#534AB7" stroke-width="1.2" stroke-linejoin="round"/>
<line x1="240.3" y1="244.6" x2="230.6" y2="263.0" stroke="#534AB7" stroke-width="2.933333333333333" stroke-linecap="round"/>
<line x1="259.7" y1="244.6" x2="269.4" y2="263.0" stroke="#534AB7" stroke-width="2.933333333333333" stroke-linecap="round"/>
<circle cx="250.0" cy="224.3" r="12.32" fill="#F6D7B8" stroke="#9A6B45" stroke-width="1.2"/>
<path d="M237.7 224.3 A12.3 12.3 0 0 1 262.3 224.3 Z" fill="#C9C9C9" stroke="#C9C9C9" stroke-width="1" stroke-linecap="round" stroke-linejoin="round"/>
<circle cx="245.7" cy="223.8" r="1.1088" fill="#1a1a18" stroke="none" stroke-width="1.5"/>
<circle cx="254.3" cy="223.8" r="1.1088" fill="#1a1a18" stroke="none" stroke-width="1.5"/>
<path d="M245.1 229.0 Q250.0 233.9 254.9 229.0" fill="none" stroke="#1a1a18" stroke-width="1.4" stroke-linecap="round" stroke-linejoin="round"/>
<line x1="268.0" y1="250.0" x2="292.0" y2="214.0" stroke="#1a1a18" stroke-width="3" stroke-linecap="round"/>
<polygon points="292.0,203.0 289.1,210.0 281.5,210.6 287.3,215.5 285.5,222.9 292.0,218.9 298.5,222.9 296.7,215.5 302.5,210.6 294.9,210.0" fill="#F5C518" stroke="#854F0B" stroke-width="1" stroke-linejoin="round"/>
<text class="th" x="250.0" y="318.0" text-anchor="middle" dominant-baseline="central" fill="#534AB7">la fée marraine</text>
<rect x="112.0" y="196.0" width="60.0" height="34.0" rx="17.0" fill="#ffffff" stroke="#1a1a18" stroke-width="1.5"/>
<circle cx="123.8" cy="227.2" r="5" fill="#ffffff" stroke="#1a1a18" stroke-width="1.2"/>
<circle cx="105.6" cy="224.4" r="3.5" fill="#ffffff" stroke="#1a1a18" stroke-width="1.2"/>
<text class="th" x="142.0" y="213.0" text-anchor="middle" dominant-baseline="central" fill="#534AB7">Oh ! ♥</text>
<text class="t" x="169.0" y="354.0" text-anchor="middle" dominant-baseline="central">Cendrillon n'a pas peur :</text>
<text class="t" x="169.0" y="374.0" text-anchor="middle" dominant-baseline="central">dans le monde du conte,</text>
<text class="t" x="169.0" y="394.0" text-anchor="middle" dominant-baseline="central">les fées existent.</text>
<text class="ts" x="169.0" y="420.0" text-anchor="middle" dominant-baseline="central">Cendrillon, de Charles Perrault</text>
<rect x="376.0" y="64.0" width="76.0" height="64.0" rx="0" fill="#1F2A4A" stroke="#5F5E5A" stroke-width="2"/>
<line x1="414.0" y1="64.0" x2="414.0" y2="128.0" stroke="#5F5E5A" stroke-width="2" stroke-linecap="round"/>
<circle cx="432.0" cy="84.0" r="10" fill="#F5E6A8" stroke="none" stroke-width="1.5"/>
<circle cx="437.0" cy="81.0" r="9" fill="#1F2A4A" stroke="none" stroke-width="1.5"/>
<circle cx="394.0" cy="80.0" r="1.8" fill="#ffffff" stroke="none" stroke-width="1.5"/>
<circle cx="402.0" cy="104.0" r="1.5" fill="#ffffff" stroke="none" stroke-width="1.5"/>
<rect x="580.0" y="60.0" width="56.0" height="150.0" rx="6" fill="#C9A57A" stroke="#7A5230" stroke-width="1.6"/>
<circle cx="608.0" cy="92.0" r="22" fill="#FFFDF5" stroke="#7A5230" stroke-width="1.6"/>
<line x1="608.0" y1="92.0" x2="608.0" y2="74.0" stroke="#1a1a18" stroke-width="2.4" stroke-linecap="round"/>
<line x1="608.0" y1="92.0" x2="608.0" y2="78.0" stroke="#1a1a18" stroke-width="1.5" stroke-linecap="round"/>
<line x1="608.0" y1="150.0" x2="608.0" y2="190.0" stroke="#7A5230" stroke-width="1.5" stroke-linecap="round"/>
<circle cx="608.0" cy="192.0" r="7" fill="#F5C518" stroke="#854F0B" stroke-width="1.5"/>
<text class="th" x="536.0" y="70.0" text-anchor="middle" dominant-baseline="central" fill="#C2410C">DONG !</text>
<text class="th" x="530.0" y="92.0" text-anchor="middle" dominant-baseline="central" fill="#C2410C">13 coups</text>
<rect x="380.0" y="250.0" width="200.0" height="44.0" rx="6" fill="#C9D8EE" stroke="#185FA5" stroke-width="1.5"/>
<rect x="380.0" y="232.0" width="12.0" height="76.0" rx="0" fill="#B08050" stroke="#7A5230" stroke-width="1.2"/>
<rect x="568.0" y="238.0" width="12.0" height="70.0" rx="0" fill="#B08050" stroke="#7A5230" stroke-width="1.2"/>
<ellipse cx="420.0" cy="244.0" rx="26" ry="12" fill="#ffffff" stroke="#5F5E5A" stroke-width="1.2"/>
<circle cx="424.0" cy="232.0" r="16" fill="#F6D7B8" stroke="#9A6B45" stroke-width="1.2"/>
<circle cx="418.4" cy="230.4" r="2.24" fill="#ffffff" stroke="#1a1a18" stroke-width="1"/>
<circle cx="429.6" cy="230.4" r="2.24" fill="#ffffff" stroke="#1a1a18" stroke-width="1"/>
<circle cx="418.4" cy="230.4" r="0.96" fill="#1a1a18" stroke="none" stroke-width="1.5"/>
<circle cx="429.6" cy="230.4" r="0.96" fill="#1a1a18" stroke="none" stroke-width="1.5"/>
<ellipse cx="424.0" cy="239.2" rx="2.56" ry="3.2" fill="#1a1a18" stroke="none" stroke-width="0"/>
<rect x="456.0" y="150.0" width="58.0" height="40.0" rx="12" fill="#ffffff" stroke="#1a1a18" stroke-width="1.5"/>
<polyline points="465.0,190.0 436.0,214.0 483.0,190.0" fill="#ffffff" stroke="#1a1a18" stroke-width="1.5" stroke-linejoin="round"/>
<line x1="466.5" y1="190.0" x2="481.5" y2="190.0" stroke="#ffffff" stroke-width="2.4" stroke-linecap="butt"/>
<text class="tl" x="485.0" y="170.0" text-anchor="middle" dominant-baseline="central" fill="#C2410C">?!</text>
<text class="t" x="511.0" y="354.0" text-anchor="middle" dominant-baseline="central">Chez Théo, l'horloge est cassée,</text>
<text class="t" x="511.0" y="374.0" text-anchor="middle" dominant-baseline="central">mais elle sonne 13 coups.</text>
<text class="t" x="511.0" y="394.0" text-anchor="middle" dominant-baseline="central">Rêve ? Fantôme ? Il a peur.</text>
<text class="ts" x="511.0" y="420.0" text-anchor="middle" dominant-baseline="central">petit texte inventé</text>
</svg>
